/* XPM */
static char *ba4b20752af945bde7922af8f94f56d0CK8pTVi79eInKdmm[] = {
/* columns rows colors chars-per-pixel */
"32 32 114 2 ",
"   c None",
".  c white",
"X  c #111530",
"o  c #101632",
"O  c #121733",
"+  c #F8FCFD",
"@  c #F7FBFC",
"#  c #101433",
"$  c #111532",
"%  c #13152C",
"&  c #F8FBFD",
"*  c #D4E0EB",
"=  c #111736",
"-  c #121832",
";  c #F7FCFD",
":  c #D8E3ED",
">  c #F1F8FC",
",  c #101736",
"<  c #111732",
"1  c #101831",
"2  c #111731",
"3  c #FDFDFC",
"4  c #D8E2EC",
"5  c #F4FAFD",
"6  c #121837",
"7  c #121833",
"8  c #F6FCFD",
"9  c #D7E2EC",
"0  c #D3DCE9",
"q  c #FEFDFB",
"w  c #FEFCFA",
"e  c #FEFCF9",
"r  c #DCE7F1",
"t  c #D6E1EC",
"y  c #F5FAFD",
"u  c #121836",
"i  c #121932",
"p  c #D7E1EB",
"a  c #D7E0EA",
"s  c #121834",
"d  c #111735",
"f  c #010102",
"g  c #D8E4ED",
"h  c #121734",
"j  c #FDFDFB",
"k  c #FFFCFA",
"l  c #121835",
"z  c #FEFDFA",
"x  c #C5CDD8",
"c  c #FEDFEF",
"v  c #FEE0EF",
"b  c #FDFCF9",
"n  c #D8E3EC",
"m  c #131835",
"M  c #111737",
"N  c #101835",
"B  c #101735",
"V  c #131832",
"C  c #F9FBFB",
"Z  c #131935",
"A  c #141937",
"S  c #D4E0EA",
"D  c #0F1436",
"F  c #0F1630",
"G  c #FDFCFC",
"H  c #141B38",
"J  c #131A34",
"K  c #131735",
"L  c #D8E2EA",
"P  c #111537",
"I  c #101733",
"U  c #121A33",
"Y  c #131B33",
"T  c #131A33",
"R  c #131B32",
"E  c #121B32",
"W  c #121A34",
"Q  c #121A35",
"!  c #D2DBE4",
"~  c #111A35",
"^  c #111933",
"/  c #121933",
"(  c #E4EDF4",
")  c #111837",
"_  c gray99",
"`  c #D5E1EB",
"'  c #101536",
"]  c #111833",
"[  c #D9E2EC",
"{  c #D9E2EB",
"}  c #D9E3EB",
"|  c #DAE3EB",
" . c #FEFDF9",
".. c #D5E0EC",
"X. c #FDFCFB",
"o. c #DBE4EF",
"O. c #121934",
"+. c #FDFCFA",
"@. c #DAE4EE",
"#. c #121935",
"$. c #D9E3ED",
"%. c #111733",
"&. c #121936",
"*. c #101633",
"=. c #D6E0EE",
"-. c #FEFCFB",
";. c #D5DFED",
":. c #D8E4EF",
">. c #101635",
",. c #131931",
"<. c #111831",
"1. c #111832",
"2. c #121931",
"3. c white",
/* pixels */
"                                                                ",
"                                                                ",
"                                                                ",
"  . . . . .   . . . . . . . . . . .   . . . . . . . . . .       ",
". . . . . . . . . . . . . . . . . . . . . . . . . . . . . .     ",
". . . . . . . . . . . . . . . . . . . . . . . . . . . . . .     ",
". . . . . . X X . . . . . . . o o . . . . . . . . . . . . .     ",
"  . . . . O + @ # $ . . . . % & * = . . . . . . . . . .   .     ",
". . . . . - ; : > , < 1 < 2 3 4 5 6 . . . . . . . . . . . .     ",
".   . . . 7 8 9 0 q w w e w r t y u . . . . . . . . . . . .     ",
". . . . . i p w w w e e e e e w a u . . . . . . . . . . . .     ",
". . . . . O q w w e e e e e e w e s . . . . . . . . . . . .     ",
". . . . d q w w e f e e e f e e w g h . . . . . . . . . . .     ",
". . . . 7 j w e e e f f e e e e k e l . . . . . . . . . . .     ",
". . . . 7 q z e e e e e e e e w w w l . . . . . . . . . . .     ",
". . . . - x c w e e e e e e e v b n m . . . . . M N B . . .     ",
". . . . V 3 q w w w e e w w w w w C Z . . . . A S j j D . .     ",
". . . . . F G q w w w w w w w w w H J . . . . K 3 L 3 P . .     ",
". . . . . . I U J Y T Y Y R E U W Q ! ~ ^ / 7 ( ) _ ` ' . .     ",
". . . . . . ] [ { [ } } } } } } | e  .e e ..3 p 3 O h . . .     ",
". . . . . . ^ X.e e e e e e e e e e e e e w o.q h O . . . .     ",
". . . . . . O.+.w e e e e e e e e e e e e e e @.h . . . . .     ",
". . . . . . #.+.e e e e e e e e e e e e e e w $.%.. . . . .     ",
". . . . . . &.+.e e e e e e e e e e e e e e w $.%.. . .         ",
". . . . . . #.w w e e e e e e e e e e e e w w $.*.. . . . .     ",
". . . . . . #.q w =.-.z w ;.-.w =.z z w w :.$.>.. . . . . .     ",
". . . . . .   ,.i i i U / - <.1.1.1.1.2.- ] >.. . . . . . .     ",
". . .   . . . . . . . . . . . . . . . . . . . . . . . . . .     ",
". . . . . . . . . . . . . . . . . . . . . . . . . . . . . .     ",
". . . . . . . . . . . . . . . . . . . . . . . . . . . . . .     ",
". . . . . . . . . . . . . . . . . . . . . . . . . . . . . .     ",
"                                                                "
};
