/* XPM */
static char *out[] = {
/* columns rows colors chars-per-pixel */
"64 64 170 2 ",
"   c #040202",
".  c #0D0300",
"X  c #0E0805",
"o  c #0B0A0A",
"O  c #100400",
"+  c #170A00",
"@  c #110C08",
"#  c #101312",
"$  c #462F1A",
"%  c #5A3A1C",
"&  c #493625",
"*  c #5E3D25",
"=  c #563C28",
"-  c #5E3E2B",
";  c #5B3E31",
":  c #633E24",
">  c #613F2B",
",  c #5F4D1B",
"<  c #66401D",
"1  c #5E4025",
"2  c #5E412B",
"3  c #5C4333",
"4  c #634226",
"5  c #684627",
"6  c #62412A",
"7  c #6C462C",
"8  c #6B492D",
"9  c #714C2E",
"0  c #7A542D",
"q  c #654334",
"w  c #6B4630",
"e  c #6E4A32",
"r  c #604E3B",
"t  c #6B4F3C",
"y  c #724E32",
"u  c #6F5239",
"i  c #745234",
"p  c #7C5535",
"a  c #725935",
"s  c #7F5A36",
"d  c #75553A",
"f  c #7C5A3D",
"g  c #487420",
"h  c #59524A",
"j  c #624F45",
"k  c #6A4F41",
"l  c #6D5542",
"z  c #64574C",
"x  c #765B42",
"c  c #7A5B41",
"v  c #705E4D",
"b  c #7B5C48",
"n  c #725B53",
"m  c #7E6044",
"M  c #7F6349",
"N  c #7F6758",
"B  c #7B6D5A",
"V  c #87582D",
"C  c #845735",
"Z  c #895634",
"A  c #845936",
"S  c #895933",
"D  c #83563A",
"F  c #835A3A",
"G  c #8A5C3B",
"H  c #87613C",
"J  c #8C613E",
"K  c #91643D",
"L  c #825E45",
"P  c #895F41",
"I  c #836243",
"U  c #8D6343",
"Y  c #896949",
"T  c #8D6A48",
"R  c #916645",
"E  c #916A45",
"W  c #926649",
"Q  c #926A49",
"!  c #94714B",
"~  c #99714D",
"^  c #846C55",
"/  c #8F795F",
"(  c #957258",
")  c #90785C",
"_  c #9E7C5D",
"`  c #A17651",
"'  c #A47B56",
"]  c #A57D5A",
"[  c #AA7E5B",
"{  c #8E7561",
"}  c #8E7964",
"|  c #86726A",
" . c #927962",
".. c #987B60",
"X. c #359525",
"o. c #58BA32",
"O. c #7CD328",
"+. c #AC8257",
"@. c #A6825D",
"#. c #AD835D",
"$. c #9E8A6E",
"%. c #94897B",
"&. c #9C8C7C",
"*. c #A68463",
"=. c #AC8462",
"-. c #AC8967",
";. c #A3866B",
":. c #A98769",
">. c #A6896B",
",. c #AE8A6A",
"<. c #B18662",
"1. c #B18965",
"2. c #B48E6A",
"3. c #B4906E",
"4. c #A38C73",
"5. c #A88B77",
"6. c #A18E7A",
"7. c #B38F72",
"8. c #A5917C",
"9. c #AB957A",
"0. c #B69577",
"q. c #BE9974",
"w. c #BD9D79",
"e. c #AB9889",
"r. c #B29C86",
"t. c #BB9982",
"y. c #B9A28C",
"u. c #B1A596",
"i. c #BEAB97",
"p. c #BEAC9A",
"a. c #BFB1A1",
"s. c #D5B28D",
"d. c #C4AE9B",
"f. c #C2B19E",
"g. c #C8B89F",
"h. c #DEBA95",
"j. c #D7BA9A",
"k. c #D8BA98",
"l. c #E1BE9B",
"z. c #C4B4A3",
"x. c #CAB9A5",
"c. c #D0B7A4",
"v. c #D1BFAC",
"b. c #C5BCB1",
"n. c #DEC19E",
"m. c #E4C19B",
"M. c #EBC89E",
"N. c #DAC4AC",
"B. c #D7C9B6",
"V. c #E4C3A4",
"C. c #E9C2A0",
"Z. c #E4C8A5",
"A. c #ECCAA3",
"S. c #E7C8AB",
"D. c #EBCDA9",
"F. c #F1CFAA",
"G. c #ECD0A7",
"H. c #EED2AB",
"J. c #F3D4AE",
"K. c #F9D6AD",
"L. c #ECD4B3",
"P. c #E7D4BB",
"I. c #F4D5B2",
"U. c #F9D8B4",
"Y. c #FFFCA2",
"T. c #FEE2BB",
"R. c #D9CDC2",
"E. c #DAD1C8",
"W. c #F0E4CC",
"Q. c #F4E7D3",
/* pixels */
"X.o.X.Y.g X.X.X.X.X.X.o.X.X.g X.g g X.X.X.g X.X.g X.o.X.X.X.X.o.X.X.X.g X.X.X.X.X.Y.Y.g , Y.Y.X.X.X.X.X.X.X.X.X.o.O.X.X.X.X.X.X.",
"o.X.X.X.g X.X.o.X.g X.X.X.o.X.X.g X.o.X.g X.g X.X.o.o.X.X.X.X.o.X.X.X.X.X.O.o.X.X.X.X.Y.Y.X.X.g o.O.X.X.X.X.X.X.X.X.X.X.o.X.X.X.",
"o.X.g X.X.g X.X.X.X.X.g X.X.X.X.X.X.X.X.X.X.X.X.X.X.X.X.X.o.o.X.g X.g X.g O.X.X.g X.X.Y.Y.X.X.X.X.X.X.X.o.X.X.O.g X.X.X.X.X.X.X.",
"X.g X.g g X.X.X.X.g g X.g X.g X.o.Y.Y.X.o.X.X.o.X.X.X.X.X.X.o.X.X.g g X.o.g X.g g X.g o.X.X.g o.X.X.X.o.g X.X.o.X.X.o.X.X.g X.X.",
"o.X.X.g g X.X.o.X.X.g g g X.X.X.X.Y.Y.X.X.X.o.X.X.X.X.X.X.o.X.X.X.o.g X.g X.X.g X.X.X.X.X.X.g g g X.X.X.g X.g X.X.o.o.X.X.g X.X.",
"g X.X.g X.X.o.O.X.X.g g X.o.X.Y.Y., g Y.Y.X.X.X.X.o.o.o.X.X.g X.g X.X.X.g X.X.X.g o.o.o.X.X.X.g X.X.X.X.X.X.X.X.o.O.X.X.X.X.g X.",
"X.g g X.X.X.X.X.X.g g g g X.X.Y.Y.g , Y.Y.X.X.o.O.X.X.X.X.X.X.g X.X.X.o.X.X.o.o.g X.O.X.X.X.X.X.X.X.o.O.X.X.X.X.X.X.X.X.o.o.X.X.",
"g X.X.X.o.X.X.g g X.g X.X.X.X.o.X.Y.Y.X.X.X.X.X.X.o.X.X.o.X.g X.X.o.o.X.X.X.O.o.X.X.X.o.X.X.g X.X.X.X.X.X.X.X.X.X.X.X.g g X.X.X.",
"X.o.X.X.X.X.X.X.X.X.X.X.X.o.X.O.o.Y.Y.X.X.o.o.X.X.X.X.X.X.X.X.g X.X.X.X.X.X.X.X.o.O.X.g g g o.X.o.X.o.O.o.X.o.g X.X.g X.X.g g X.",
"X.X.X.X.X.X.X.X.o.X.o.O.X.X.o.X.X.g X.X.X.X.X.O.X.o.o.X.X.X.X.X.X.X.X.X.X.X.X.X.X.X.X.X.o.g g X.X.X.o.X.X.X.X.g o.X.X.g X.X.g X.",
"X.X.g X.X.X.O.X.X.X.X.X.X.X.X.X.g g g X.X.o.o.X.X.X.X.X.o.X.X.o.X.o.X.o.o.O.X.X.O.X.X.X.g X.X.O.X.X.X.o.X.g g g X.X.g X.X.X.X.X.",
"g X.X.X.X.X.X.X.X.o.X.o.X.o.O.X.X.X.X.X.X.X.X.X.g X.X.g X.X.X.X.X.o.x x c f c c M ;.;.;.4.;.;. .f l X.X.X.X.X.X.X.X.X.o.X.X.X.g ",
"X.X.o.X.X.X.O.o.X.X.X.X.X.O.X.X.X.o.O.X.X.o.X.g g g g g g X.o.o.X.X.G A S S Z S R #.1.2.=.#.#.` A i X.Y.o.O.X.o.X.X.X.X.X.X.X.X.",
"X.g X.o.X.X.X.X.g X.g X.o.o.X.X.X.X.X.X.X.g X.X.X.g X.X.o.X.X.X.X.X.F A A A A A Q D.D.3.=.=.*.w.A.N.Y.g Y.O.o.X.X.X.o.X.o.O.o.X.",
"X.X.g X.g g g g X.X.X.o.X.X.X.X.X.o.o.X.X.X.X.X.g X.X.X.X.X.X.X.X.X.A A F F A F _ I.J.@.=.=.=.w.J.P.X.Y.X.X.X.X.X.X.X.X.X.X.X.X.",
"X.g X.g g X.X.X.X.X.O.X.X.X.o.X.o.X.X.X.O.X.X.o.X.X.X.X.X.X.o.X.X.X.G A A F U E $.R.B.@.=.=.#.t.N.B.X.o.X.X.X.X.X.X.X.o.o.X.X.X.",
"X.g X.X.g X.X.o.o.X.o.X.X.X.o.X.X.X.X.X.O.o.X.o.X.X.X.o.X.X.X.X.o.X.A A A F C.J.x.X + >.#.=.=.|   # o.X.X.X.X.o.O.X.X.X.X.X.g g ",
"g X.X.X.X.X.X.X.X.X.X.X.X.X.X.X.X.X.X.X.X.X.X.X.X.g X.X.X.g X.X.o.X.F s 0 E S.L.g.O . >.=.#.#.N X @ X.X.o.X.X.X.X.X.X.X.X.X.X.X.",
"X.X.o.X.X.X.o.o.X.X.X.X.o.X.X.X.X.Y.g X.g X.g X.X.X.X.X.g g g g X.X.F F T.I.I.I.Z.5.>.L.K.K.K.V.>.8.X o o o X.X.X.o.o.O.X.X.o.X.",
"X.X.X.X.X.X.o.X.X.X.X.X.X.X.X.o.Y.g Y.X.X.g g X.o.X.o.X.X.g X.g X.X.F T K.I.H.H.M.=.#.K.J.L.L.m.+.4.        X.X.X.X.X.X.X.X.o.o.",
"X.X.X.o.X.o.X.X.X.X.X.X.X.X.X.X.X.Y.g g B ^ ^ ^ %.X.o.X.g g X.g X.X.f d _ E k.J.J.A.A.H.J.J.J.D.Z.S.t k t t X.X.o.o.X.X.X.X.X.X.",
"X.o.Y.Y.X.X.X.o.X.X.X.o.o.X.X.g g X.g X.u S V A / X.X.X.X.X.X.g X.X.- c s F m.J.J.H.I.J.J.J.I.J.J.J.C C C A X.o.X.o.X.o.o.o.X.X.",
"o.o.Y.Y.X.O.o.X.X.X.X.X.o.g X.X.g X.X.X.p C ( _ &.X.O.o.X.o.X.X.X.X.- > f s n.J.J.J.J.J.J.J.J.G.l.h.A F ~ ! X.X.X.X.X.X.o.X.X.X.",
"Y.Y., g Y.Y.X.X.X.o.o.X.X.X.X.X.X.X.I s S f X.X.g g X.X.X.o.o.r.F F * 3 1 6 k.J.J.J.J.J.J.J.J.n.V A C F J.J.o.X.o.X.X.X.X.X.X.X.",
"Y.Y.g , Y.Y.o.X.X.X.X.X.X.X.X.g X.X.F L a c X.X.X.X.g X.X.X.X.y.F D < 4 6 4 j.I.J.J.J.J.L.I.J.s.A A D D J.J.O.X.X.X.X.X.o.O.X.X.",
"O.o.Y.Y.X.X.X.X.X.X.X.X.o.X.X.n q q Z f X.X.X.X.o.O.X.X.g M I F Z A F f 6 - 4 4 a H.J.J.J.J.H.m.=.=.=.,.K.J.X.o.o.X.X.O.O.o.o.X.",
"o.X.Y.Y.o.X.X.g X.g X.X.X.X.g n 6 5 c c X.X.X.o.X.X.o.X.X.p V A A A A F : > q 2 f H.H.J.H.J.H.m.=.=.=.=.I.J.X.X.o.X.X.X.X.X.X.X.",
"X.X.X.o.X.X.g X.g , g g < g X.v : r o.O.X.X.B i u u u u l s s f A F A F D f w 6 2 % % % % n.H.m.#.=.<.=.K.J.o.X.X.X.o.X.X.o.o.o.",
"X.X.X.X.X.X.X.g X.g , X.g X.g n : j g X.X.X.^ Z Z V S S A S s A Z F A A G C 5 > 8 2 6 4 4 Z.H.n.=.#.=.-.I.J.X.X.X.X.X.o.X.X.o.X.",
"X.o.X.X.X.o.o.X.X.X.g g X.g X.z = 3 a.f.f.d.Y A F Z A A A A F A F A A A Z L L F f 9 e f H P.Q.S.#.*.c.v.W.Q.X.X.o.X.X.X.X.X.X.o.",
"X.o.X.X.X.X.X.X.X.g X.g g X.X.h & & A C A A A S J A A A A A A A Z F F A A Z ' =.' F F =.*.X.X.X.=.$.X.X.o.X.o.X.o.X.X.X.o.X.X.o.",
"X.X.X.X.X.X.g X.g X.X.X.g X.g z $ = Z S A F F U W R A A A f F F A A A A A A [ <.' A A =.:.o.O.O.;.6.X.X.o.X.X.X.X.X.o.X.X.o.X.X.",
"X.o.X.X.X.g g , , g X.g g g o.} C f F s A A L W W A A D Z 6 > 9 C F A A F F ] -.=.<.=.[ =.X.X.X.X.X.X.o.X.X.X.o.X.o.o.X.X.O.o.X.",
"X.X.X.X.g X.X.X.X.X.g g g X.X.} F A F A F U U F A A A A F > ; y F C A A D A ] =.=.=.=.=.:.X.o.o.X.X.g X.o.X.X.X.X.X.X.g X.X.X.X.",
"X.o.X.X.X.g X.X.X.X.X.X.X.v f d F A F C P W G A Z A A A F > > y A A A A G A [ =.#.#.=.=.:.X.X.X.o.X.X.X.o.o.X.X.X.X.X.X.X.X.X.X.",
"g X.X.X.X.X.o.X.X.X.X.X.X.f C A S A s H W U F A D F A A A 4 5 y C F A A D A ] =.=.#.*.=.:.X.X.X.X.X.X.X.X.X.X.X.X.X.X.X.X.g o.X.",
"X.g X.X.X.X.o.o.X.O.o.o.X.f V Z A F F T y e 7 7 7 7 7 8 8 6 > 6 7 w 7 w 7 7 i i H =.=.R Y Y.o.X.g X.X.X.X.X.X.o.X.o.X.X.g X.X.O.",
"o.X.g g g X.X.X.X.o.O.X.o.a S F F U W m 6 6 6 6 6 6 6 6 2 6 > 6 6 6 6 6 > 6 2 : 5 *.-.A L g Y.X.X.X.g X.X.X.X.X.X.o.X.X.g X.X.X.",
"X.X.g X.o.o.o.O.o.X.X.X.X.m H F P W f c 4 4 6 6 6 6 6 6 2 6 2 6 > : e e c i 6 - 9 @.] J I Y.X.O.X.X.O.o.X.X.g X.X.X.X.X.X.X.X.X.",
"X.X.g X.O.o.g g o.o.g g g :.+.E W P 6 6 6 2 2 2 6 : 6 6 4 4 2 6 > * :.=.I.I.c 1 5 H F =.=.X.X.X.X.X.X.g X.X.X.X.o.X.X.o.o.X.X.o.",
"o.O.X.X.g o.X.o.X.X.X.Y.Y.;.#.K D D : : 4 4 6 2 * : * ; - ; 3 - : % @.#.J.U.c 6 5 A p #.:.o.X.X.X.X.X.X.g X.g g X.g X.X.X.X.X.X.",
"X.O.X.X.X.X.o.O.X.X.g Y.Y.;.#.<.<.[ =.=.p F _ *.:.=.$.o.o.g X.c.*.*.I.U.F.I.c 4 i -.-.#.X.X.g g g X.X.X.X.X.X.X.o.X.X.X.X.X.X.X.",
"X.X.X.X.X.o.X.o.g Y.Y., g ;.+.#.=.-.:.=.F F ] =.>.-.;.X.O.o.X.x.@.@.I.I.J.U.x 6 y =.#.#.o.g o.X.X.X.o.o.X.X.o.O.X.o.X.X.o.o.X.X.",
"X.o.X.X.X.X.X.X.X.Y.Y.g , ;.#.@.=.] P J D F ] =.0.X.g o.g X.X.z.=.@.J.J.q.w.F p f *.=.o.X.X.O.X.X.Y.Y.X.X.X.g o.g X.X.X.X.X.X.X.",
"X.O.o.X.X.X.X.X.o.X.X.Y.Y.;.<.=.#.@.F D G C @.=.r.g X.X.X.X.X.x.=.@.K.J.2.7.! Z U #.>.X.o.X.X.X.g Y.Y.X.X.X.X.X.o.O.X.X.X.X.X.X.",
"X.o.g g X.g o.X.X.g X.Y.Y.:.#.@.#...x b D Z ` @.9.X.X.X.g g X.x.=.=.A.L.r.e.I A R [ _ X.X.X.X.Y.Y., g Y.Y.X.X.X.X.g g X.X.X.o.X.",
"g X.X.X.X.o.O.X.X.X.o.X.X.;.#.#.=.9.X.X.u Z S A } O.X.o.X.X.X.x.#.#.3.4.o.X.{ s C A c g X.X.X.Y.Y.g , Y.Y.o.X.X.X.X.X.X.o.g g X.",
"X.X.X.X.X.X.X.o.X.X.X.X.X.;.<.#.<.9.X.X.i A A A } X.X.X.X.X.o.x.=.,.3.2.X.X.{ A A A c g X.X.X.X.X.Y.Y.X.X.X.X.X.X.X.X.X.X.X.X.X.",
"X.o.X.X.X.X.X.X.X.X.o.X.X.;.#.#.#.9.X.g p A s S } X.X.X.o.X.X.z.1.2.2.,.X.X.{ A A A c X.g X.o.X.X.Y.Y.X.g g X.X.X.o.O.g o.X.X.X.",
"O.O.X.X.O.X.X.X.X.o.X.o.X.$.#.#.#.9.X.X.d A F C } X.X.X.X.X.X.x.3.,.#.:.O.X.{ A A F f X.X.X.X.X.X.g X.X.X.g X.X.X.X.X.g X.X.g o.",
"o.o.X.X.o.X.X.X.X.X.X.X.X.;.#.#.<.9.O.X.d A F F ) X.o.O.o.X.O.N.=.=.<.:.X.X.{ A A A f X.X.X.O.X.o.X.X.X.X.X.X.g X.X.g X.g X.g g ",
"X.g g o.O.X.X.X.o.X.X.X.X.>.=.<.@.8.X.g i A C s ) X.X.X.X.o.o.x.*.<.=.;.X.X.{ F G A f X.o.X.o.X.X.X.X.g X.X.X.X.X.g X.X.X.X.g g ",
"X.X.X.o.X.X.o.X.X.o.X.o.o.p.d.i.u.b.X.X.e.4.6.6.u.X.X.X.X.X.X.E.z.i.i.a.X.X.u.6.4.6.&.X.X.X.X.X.o.X.X.g X.o.o.X.X.X.o.X.X.X.g g ",
"X.X.X.X.X.X.X.X.X.X.X.X.g o.g g X.g g X.X.g X.g g X.o.X.X.o.X.o.X.X.X.g g X.X.g X.X.X.X.o.O.X.o.X.o.X.X.o.X.X.g X.X.X.X.o.X.o.X.",
"g g X.X.o.X.X.X.o.o.X.X.X.X.X.X.X.X.X.X.g X.X.g X.X.X.X.X.X.X.X.o.X.g o.X.g X.g o.X.X.X.X.X.X.X.X.X.X.X.o.X.g X.X.X.X.O.o.X.X.X.",
"o.X.X.o.X.X.X.X.X.X.X.X.X.X.o.X.X.g X.o.X.X.X.X.X.X.X.X.X.X.X.X.g o.O.o.X.X.X.X.X.X.X.X.g g X.g g g X.g X.X.X.o.X.X.X.X.X.X.X.X.",
"X.X.X.O.o.X.o.X.X.O.X.X.X.o.X.X.X.X.X.o.X.X.X.g o.g g X.X.X.X.X.X.X.o.X.X.X.o.X.X.O.o.X.X.X.g g X.X.X.X.g g X.g X.X.g X.X.o.O.X.",
"g o.X.X.o.X.X.X.o.X.o.X.X.X.X.X.X.X.X.X.X.g X.X.g g X.o.o.X.X.X.g g X.X.X.X.X.X.X.X.X.X.X.g X.X.X.o.o.X.X.X.X.X.g X.X.o.X.X.X.X.",
"X.X.g X.g X.o.X.X.X.X.X.X.X.X.X.g X.X.X.X.X.g X.X.o.X.X.X.X.X.X.g X.X.g g X.X.X.o.X.X.O.o.X.g X.X.X.X.g X.g X.o.X.X.X.X.Y.X.g , ",
", , , g X.X.X.X.X.X.X.X.X.X.X.X.X.X.X.X.X.o.g g X.X.X.X.X.X.X.X.X.g X.X.X.X.X.X.X.o.X.o.X.X.X.X.g X.g X.X.X.X.X.X.X.g Y.g Y.X.g ",
"g , X.g g o.O.X.X.o.X.X.X.X.O.X.X.o.X.X.X.X.X.X.Y.X.X.X.X.X.X.X.X.X.X.X.o.O.X.X.X.X.X.X.X.X.o.o.X.o.g X.g o.O.X.X.o.X.X.Y.g X.X.",
"X.X.X.g X.X.X.X.X.X.X.X.X.X.X.X.o.O.X.X.X.X.o.Y.g Y.o.X.X.o.X.X.g X.X.X.X.X.X.X.X.X.X.Y.Y.X.X.X.X.X.X.X.X.o.X.g X.X.X.X.X.X.g X.",
"g g X.Y.X.o.X.X.X.X.X.O.X.g X.X.X.g X.X.X.X.X.X.Y.X.X.X.X.X.X.X.X.X.o.X.X.X.X.X.o.X.O.Y.Y.X.g X.X.X.o.X.X.X.X.g X.g o.X.X.X.o.O.",
"X.g Y.g Y.o.X.X.X.X.X.X.X.X.X.g g X.X.o.X.X.X.X.g g X.X.X.o.X.X.X.o.O.X.o.O.X.X.X.Y.Y., g Y.Y.X.g X.X.X.o.O.X.X.g X.X.X.X.g X.O."
};
