/* XPM */
static char *a79437499c1944fbae02da9a8b788e3bUzthlQtBCxx78Yxe[] = {
/* columns rows colors chars-per-pixel */
"64 64 138 2 ",
"   c #2E170E",
".  c #351B11",
"X  c #3E1F13",
"o  c #36231A",
"O  c #38241A",
"+  c #342D23",
"@  c #383124",
"#  c #3B332A",
"$  c #3C3330",
"%  c #432214",
"&  c #4D2617",
"*  c #4E2718",
"=  c #4C2B1B",
"-  c #532919",
";  c #5C2D1C",
":  c #6E2D1E",
">  c #65321F",
",  c #7C3A1E",
"<  c #432D21",
"1  c #542F21",
"2  c #473427",
"3  c #433C29",
"4  c #583928",
"5  c #433B32",
"6  c #4E3F32",
"7  c #443B39",
"8  c #6D3321",
"9  c #603D2B",
"0  c #713321",
"q  c #7C3423",
"w  c #7C3A23",
"e  c #7F3628",
"r  c #5F4D1B",
"t  c #7E411C",
"y  c #4B452D",
"u  c #4E492F",
"i  c #4B4239",
"p  c #524D30",
"a  c #524639",
"s  c #54483A",
"d  c #5A4A39",
"f  c #565133",
"g  c #5B5536",
"h  c #57503C",
"j  c #5A533C",
"k  c #6D4A3C",
"l  c #635339",
"z  c #685739",
"x  c #635C3B",
"c  c #6B5A39",
"v  c #487420",
"b  c #66603C",
"n  c #6A633E",
"m  c #72633E",
"M  c #69544C",
"N  c #6D6640",
"B  c #746C44",
"V  c #786F46",
"C  c #787046",
"Z  c #7D7449",
"A  c #843625",
"S  c #8A3625",
"D  c #843E24",
"F  c #893F24",
"G  c #953727",
"H  c #973728",
"J  c #9E3829",
"K  c #A03829",
"L  c #8C4025",
"P  c #974527",
"I  c #9C4727",
"U  c #9E4628",
"Y  c #AB4F25",
"T  c #A04228",
"R  c #A04828",
"E  c #AB4E28",
"W  c #AF5028",
"Q  c #B75627",
"!  c #B45B24",
"~  c #BB5A26",
"^  c #B45228",
"/  c #BB5528",
"(  c #BF5828",
")  c #A44538",
"_  c #BE6224",
"`  c #AE603E",
"'  c #CB761F",
"]  c #CA791F",
"[  c #C25D26",
"{  c #C05828",
"}  c #C36325",
"|  c #C56923",
" . c #C77121",
".. c #C87520",
"X. c #A95F44",
"o. c #80774B",
"O. c #857B4D",
"+. c #866154",
"@. c #84695E",
"#. c #8A7F50",
"$. c #AC654C",
"%. c #856E64",
"&. c #8F7B72",
"*. c #359525",
"=. c #58BA32",
"-. c #7CD328",
";. c #DF8E15",
":. c #D3831A",
">. c #D28A19",
",. c #D98818",
"<. c #DF9015",
"1. c #E19513",
"2. c #E39D12",
"3. c #E6A70F",
"4. c #E6AB0E",
"5. c #E8AF0D",
"6. c #E9B30C",
"7. c #EAB80B",
"8. c #E4A211",
"9. c #8D8252",
"0. c #91875A",
"q. c #93895D",
"w. c #958C61",
"e. c #9C936D",
"r. c #A29B79",
"t. c #C5967F",
"y. c #C8A279",
"u. c #978781",
"i. c #B89588",
"p. c #ABA587",
"a. c #ACA689",
"s. c #ACA790",
"d. c #B2AC92",
"f. c #B4B09F",
"g. c #C6A99B",
"h. c #C6AFA4",
"j. c #C1BDAD",
"k. c #FFFCA2",
/* pixels */
"*.=.*.k.v *.*.*.*.*.*.=.*.*.v *.v v *.*.*.v *.*.v *.=.*.*.*.*.=.*.*.*.v *.*.*.*.*.k.k.v r k.k.*.*.*.*.*.*.*.*.*.=.-.*.*.*.*.*.*.",
"=.*.*.*.v *.*.=.*.v *.*.*.=.*.*.v *.=.*.v *.v *.*.=.=.*.*.*.*.=.*.*.*.*.*.-.=.*.*.*.*.k.k.*.*.v =.-.*.*.*.*.*.*.*.*.*.*.=.*.*.*.",
"=.*.v *.*.v *.*.*.*.*.v *.*.*.*.*.*.*.*.*.*.*.*.*.*.*.*.*.=.=.*.v *.v *.v -.*.*.v *.*.k.k.*.*.*.*.*.*.*.=.*.*.-.v *.*.*.*.*.*.*.",
"*.v *.v v *.*.*.*.v v *.v *.v *.=.k.k.*.=.*.*.=.*.*.*.*.*.*.=.*.*.v v *.=.v *.v v *.v =.*.*.v =.*.*.*.=.v *.*.=.*.*.=.*.*.v *.*.",
"=.*.*.v v *.*.=.*.*.v v v *.*.*.*.k.k.*.*.*.=.*.*.*.*.*.*.=.*.*.*.=.v *.v *.*.v *.*.*.*.*.*.v v v *.*.*.v *.v *.*.=.=.*.*.v *.*.",
"v *.*.v *.*.=.-.*.*.v v *.=.*.k.k.r v k.k.*.*.*.*.=.=.=.*.*.v *.v *.*.*.v *.*.*.v =.=.=.*.*.*.v *.*.*.*.*.*.*.*.=.-.*.*.*.*.v *.",
"*.v v *.*.*.*.*.*.v v v v *.*.k.k.v r k.k.*.*.=.-.*.*.*.*.*.) ) ) ) ) =.*.*.=.=.v *.-.*.*.*.*.*.*.*.=.-.*.*.*.*.*.*.*.*.=.=.*.*.",
"v *.*.*.=.*.*.v v *.v *.*.*.*.=.*.k.k.*.*.*.*.*.*.=.t.[  .] 7.<.1.;.7.] | [ g.=.*.*.*.=.*.*.v *.*.*.*.*.*.*.*.*.*.*.*.v v *.*.*.",
"*.=.*.*.*.*.*.*.*.*.*.*.*.=.*.-.=.k.k.*.*.=.=.h.g.[ ] >.7.;.8.7.2.;.;.1.7.>.] { h.-.*.v v v =.*.=.*.=.-.=.*.=.v *.*.v *.*.v v *.",
"*.*.*.*.*.*.*.*.=.*.=.-.*.*.=.*.*.v *.*.*.*.| | :.:.4.7.7.;.4.7.;.;.;.;.7.7.3.:.:.' y.*.=.v v *.*.*.=.*.*.*.*.v =.*.*.v *.*.v *.",
"*.*.v *.*.*.-.*.*.*.*.*.*.*.*.*.v v v *.*. .] 6.7.;.7.7.7.4.;.;.;.;.;.5.7.7.7.;.7.6.:.| v *.*.-.*.*.*.=.*.v v v *.*.v *.*.*.*.*.",
"v *.*.*.*.*.*.*.*.=.*.=.*.=.-.*.*.*.*.*.` | ] 6.7.;.8.7.7.7.4.;.6.;.6.7.7.7.2.;.7.4.] | X.*.*.=.=.*.*.*.*.*.*.*.*.*.*.=.*.*.*.v ",
"*.*.=.*.*.*.-.=.*.*.*.*.*.-.*.*.*.=.-.R | ] :.;.;.5.;.;.6.7.7.7.7.7.7.7.3.;.;.7.;.;.:.] | $.*.*.*.*.*.k.=.-.*.=.*.*.*.*.*.*.*.*.",
"*.v *.=.*.*.*.*.v *.v *.=.=.*.*.*.*.*.] ] ] ;.6.7.;.;.;.6.7.7.7.7.7.7.7.3.;.;.;.7.4.;.] ] _ *.*.-.*.k.v k.-.=.*.*.*.=.*.=.-.=.*.",
"*.*.v *.v v v v *.*.*.=.*.*.*.*.*.t | :.;.:.;.7.7.6.;.1.;.7.7.6.;.6.7.6.;.1.;.7.7.7.;.] ] ..{ , *.*.*.k.*.*.*.*.*.*.*.*.*.*.*.*.",
"*.v *.v v *.*.*.*.*.-.*.*.*.=.*.i.[ [ :.;.] ;.2.7.7.5.;.;.;.;.;.;.;.;.;.;.;.6.7.7.2.;.] ] ..{ { +.*.*.=.*.*.*.*.*.*.*.=.=.*.*.*.",
"*.v *.*.v *.*.=.=.*.=.*.*.*.=.*.! ~ R ] ] ] ] ;.;.1.6.;.;.;.;.;.;.;.;.;.;.;.7.;.;.;.] ] ] ..E / Y *.=.*.*.*.*.=.-.*.*.*.*.*.v v ",
"v *.*.*.*.*.*.*.*.*.*.*.*.*.*.R { E ( | | ] ] ] ;.1.7.7.7.;.7.7.7.7.7.;.7.7.7.;.;.] ] ] | | ( ^ { R *.*.=.*.*.*.*.*.*.*.*.*.*.*.",
"*.*.=.*.*.*.=.=.*.*.*.*.=.*.; R T | | | | ] ;.] ;.;.6.6.1.;.7.7.7.7.7.;.2.6.6.;.,.] ] ] | { { { K R k *.*.*.*.*.*.=.=.-.*.*.=.*.",
"*.*.*.*.*.*.=.*.*.*.*.*.*.k T R Q | | | | ] ;.] ] ;.;.,.] ;.1.7.7.7.;.;.] ;.;.;.] ] ] ] | { { { W R T %.=.*.*.*.*.*.*.*.*.*.=.=.",
"*.*.*.=.*.=.*.*.*.*.*.*.*.S K T Q | | | | ] ] ] ] ] ] ] ] ;.;.;.;.;.;.;.] ] ] ] ] ] ] ] } { { { ^ T K q *.*.*.*.=.=.*.*.*.*.*.*.",
"*.=.k.k.*.*.*.=.*.*.*.=.=.> R R R } | [ [  .] ] ] ] ] ] ] ] ;.;.;.;.;.] ] ] ] ] ] ] ] | { { { { R R U ; *.=.*.=.*.=.*.=.=.=.*.*.",
"=.=.k.k.*.-.=.*.*.*.*.*.e H R R R R { { | | | | ] ;.:.] ] ] ] ] ] ] ] ] ] ] ] ] ] } { { } | } R R R R * 1 *.*.*.*.*.*.*.=.*.*.*.",
"k.k.r v k.k.*.*.*.=.=.u.J K R R R { { | | | | | ] ] ] ] ] ] ,.] ] ] ] ] ] ] ] ] ..} { { { | | { R R F & & *.=.*.=.*.*.*.*.*.*.*.",
"k.k.v r k.k.=.*.*.*.*.u.> H K R R ( { | | | | { | | ..| ..,.;.] ] ] ] ] | | ..| } [ | [ { { { / R R & - > =.-.*.*.*.*.*.=.-.*.*.",
"-.=.k.k.*.*.*.*.*.*.*.: K K K T R R ( { | | [ | | | | | | ] ] ]  .] ] } [ { { { { [ | | { { / R R T & & & & *.=.=.*.*.-.-.=.=.*.",
"=.*.k.k.=.*.*.v *.v *.q K K K K R R R R { [ { | | | | | | | | | } [ [ [ { { } | { [ | | { R R R R K > - & - *.*.=.*.*.*.*.*.*.*.",
"*.*.*.=.*.*.v *.v r v > 8 8 > q T R R { { { { | | | | { | | | | { { | | } { | | } { { { { / R R K 8 > > - & =.*.*.*.=.*.*.=.=.=.",
"*.*.*.*.*.*.*.v *.v r > > G K K A A K R { { ( { | | } } | | | | | { | | | [ | | | { ( { { R J q - & & & & - *.*.*.*.*.=.*.*.=.*.",
"*.=.*.*.*.=.=.*.*.*.v & 8 K K S > > G R R R R / { { { } | | | | | { | | | [ { { { ^ R R R R S > > - & & & *.*.*.=.*.*.*.*.*.*.=.",
"*.=.*.*.*.*.*.*.*.v *.- S K K > > > A R R R R W { { { { } | | | [ { { } [ { { { { E R R R R q > > > & & & *.=.*.=.*.*.*.=.*.*.=.",
"*.*.*.*.*.*.v *.v *.*.@.0 K > > > q 8 q R R R R E { { ^ ( [ [ [ { { { { / / { { E R R R R > ; > > > & & & *.*.*.*.*.=.*.*.=.*.*.",
"*.=.*.*.*.v v r r v *.v ; 0 0 > H K K > 0 K T R R R R R R { { { E { { { R R R R R R T w - & & ; > > & & &.*.*.=.*.=.=.*.*.-.=.*.",
"*.*.*.*.v *.*.*.*.*.v v v > > J K K 0 > > > > P R R R R R R R R R R R R R R R R R F > - & & & & & & & %.=.*.*.*.*.*.*.v *.*.*.*.",
"*.=.*.*.*.v *.*.*.*.*.*.*.=.  H K q > > > > > > P P P H R R R I P U R R R H P P L > > - & & & & & & *.*.=.=.*.*.*.*.*.*.*.*.*.*.",
"v *.*.*.*.*.=.*.*.*.*.*.*.*.=.- K q > > A > > > > > > > L R I w > D R R L > > > > > > ; & & & & &   *.*.*.*.*.*.*.*.*.*.*.v =.*.",
"*.v *.*.*.*.=.=.*.-.=.=.*.*.*.=.> 0 > > K S > > > > > > > > > > > > > > > > > > > > > > & & & & & *.*.*.*.*.*.=.*.=.*.*.v *.*.-.",
"=.*.v v v *.*.*.*.=.-.*.=.*.=.=.-.M X > K K G 8 > > > > > > > > > > > > > > > & - > ; & & & . *.*.*.v *.*.*.*.*.*.=.*.*.v *.*.*.",
"*.*.v *.=.=.=.-.=.*.*.*.*.*.*.*.*.-.*.. K K K K K > > > > > > > > > > & > > > & & & & & & k.*.-.*.*.-.=.*.*.v *.*.*.*.*.*.*.*.*.",
"*.*.v *.-.=.v v =.=.v v v v *.*.=.*.-.=.< > H 0 > > > > > > > > > > & & & > - & & & & & *.*.*.*.*.*.*.v *.*.*.*.=.*.*.=.=.*.*.=.",
"=.-.*.*.v =.*.=.*.*.*.k.k.v *.*.*.*.=.*.< > H 0 > > > > > > > > > > & & & > - & & & & & *.=.*.*.*.*.*.*.v *.v v *.v *.*.*.*.*.*.",
"*.-.*.*.*.*.=.-.*.*.v k.k.*.r r v *.*.*.9.m = - - - o O - > > > > - & & % o % % % % c 9.9.*.v v v *.*.*.*.*.*.*.=.*.*.*.*.*.*.*.",
"*.*.*.*.*.=.*.=.v k.k.r v k.k.v v v w.9.Z n n n h i i i s < < 9 4 6 < 2 i i a h n n n n Z 9.e.*.*.*.=.=.*.*.=.-.*.=.*.*.=.=.*.*.",
"*.=.*.*.*.*.*.*.*.k.k.v r k.k.*.*.9.9.B n n j s d d d i i d d d d d d a i s d d a n n n n Z 9.9.*.k.k.*.*.*.v =.v *.*.*.*.*.*.*.",
"*.-.=.*.*.*.*.*.=.*.*.k.k.*.*.v 9.9.B n n i d d d d d a i d d d d d d s i d d d d d d x n n Z 9.9.k.k.*.*.*.*.*.=.-.*.*.*.*.*.*.",
"*.=.v v *.v =.*.*.v *.k.k.*.=.9.9.C n n x # 7 i i i i i 7 l d d d d d d i i i i i i 7 y n n n Z 9.9.v k.k.*.*.*.*.v v *.*.*.=.*.",
"v *.*.*.*.=.-.*.*.*.=.*.*.=.9.9.9.n n n n f 3 @ @ @ @ + $ l z l d l c d + @ @ @ @ @ p b n n n n 9.9.9.k.k.=.*.*.*.*.*.*.=.v v *.",
"*.*.*.*.*.*.*.=.*.*.*.*.*.e.9.9.O.n n n n n n n n g g p @ i z c c c d 5 p f g g n n n n n n n n #.9.9.a.*.*.*.*.*.*.*.*.*.*.*.*.",
"*.=.*.*.*.*.*.*.*.*.=.*.*.q.9.9.Z n n n n n n n n n n g p i l c c c i @ p n n n n n n n n n n n O.9.9.e.v v *.*.*.=.-.v =.*.*.*.",
"-.-.*.*.-.*.*.*.*.=.*.=.*.9.9.9.9.n n n n n n n n n n n p + i z c d i y g n n n n n n n n n n n 9.9.9.9.*.v *.*.*.*.*.v *.*.v =.",
"=.=.*.*.=.*.*.*.*.*.*.*.*.e.9.9.9.V n n n n n n n n n n n p i z c i + f n n n n n n n n n n n Z 9.9.9.p.*.*.*.v *.*.v *.v *.v v ",
"*.v v =.-.*.*.*.=.*.*.*.*.r.9.9.9.9.n n n n n n n n n n n p + s z i + n n n n n n n n n n n n 9.9.9.9.v *.*.*.*.*.v *.*.*.*.v v ",
"*.*.*.=.*.*.=.*.*.=.*.=.=.-.9.9.9.9.9.n n n n n n n n n n n # i i 5 p n n n n n n n n n n n 9.9.9.9.0.v *.=.=.*.*.*.=.*.*.*.v v ",
"*.*.*.*.*.*.*.*.*.*.*.*.v =.v 9.9.9.9.9.n n n n n n n n n n p 5 i u n n n n n n n n n n n 9.9.9.9.9.*.*.=.*.*.v *.*.*.*.=.*.=.*.",
"v v *.*.=.*.*.*.=.=.*.*.*.*.*.*.9.9.9.9.9.O.n n n n n n n n n u y x n n n n n n n n n O.9.9.9.9.9.*.*.*.=.*.v *.*.*.*.-.=.*.*.*.",
"=.*.*.=.*.*.*.*.*.*.*.*.*.*.=.*.*.9.9.9.9.9.9.#.n n n n n n n n n n n n n n n n B #.9.9.9.9.9.9.v v *.v *.*.*.=.*.*.*.*.*.*.*.*.",
"*.*.*.-.=.*.=.*.*.-.*.*.*.=.*.*.*.*.r.9.9.9.9.9.9.9.o.N N N N n n n N N N N O.9.9.9.9.9.9.9.d.v *.*.*.*.v v *.v *.*.v *.*.=.-.*.",
"v =.*.*.=.*.*.*.=.*.=.*.*.*.*.*.*.*.*.*.r.9.9.9.9.9.9.9.9.9.9.9.9.9.9.9.9.9.9.9.9.9.9.9.r.v *.*.*.=.=.*.*.*.*.*.v *.*.=.*.*.*.*.",
"*.*.v *.v *.=.*.*.*.*.*.*.*.*.*.v *.*.*.*.*.v *.9.9.9.9.9.9.9.9.9.9.9.9.9.9.9.9.9.d.*.-.=.*.v *.*.*.*.v *.v *.=.*.*.*.*.k.*.v r ",
"r r r v *.*.*.*.*.*.*.*.*.*.*.*.*.*.*.*.*.=.v v *.*.*.*.*.*.s.9.9.9.f.f.j.*.*.*.*.=.*.=.*.*.*.*.v *.v *.*.*.*.*.*.*.v k.v k.*.v ",
"v r *.v v =.-.*.*.=.*.*.*.*.-.*.*.=.*.*.*.*.*.*.k.*.*.*.*.*.*.*.*.*.*.*.=.-.*.*.*.*.*.*.*.*.=.=.*.=.v *.v =.-.*.*.=.*.*.k.v *.*.",
"*.*.*.v *.*.*.*.*.*.*.*.*.*.*.*.=.-.*.*.*.*.=.k.v k.=.*.*.=.*.*.v *.*.*.*.*.*.*.*.*.*.k.k.*.*.*.*.*.*.*.*.=.*.v *.*.*.*.*.*.v *.",
"v v *.k.*.=.*.*.*.*.*.-.*.v *.*.*.v *.*.*.*.*.*.k.*.*.*.*.*.*.*.*.*.=.*.*.*.*.*.=.*.-.k.k.*.v *.*.*.=.*.*.*.*.v *.v =.*.*.*.=.-.",
"*.v k.v k.=.*.*.*.*.*.*.*.*.*.v v *.*.=.*.*.*.*.v v *.*.*.=.*.*.*.=.-.*.=.-.*.*.*.k.k.r v k.k.*.v *.*.*.=.-.*.*.v *.*.*.*.v *.-."
};
