/* XPM */
static char *_15fcdb1f9df4ddbf91903fe12cd022e2MZLQFAJf7XLMzj4[] = {
/* columns rows colors chars-per-pixel */
"64 64 117 2 ",
"   c #332B23",
".  c #2F352E",
"X  c #31322B",
"o  c #3C342E",
"O  c #2D3B36",
"+  c #2D3E3A",
"@  c #39353E",
"#  c #453D34",
"$  c #433B3A",
"%  c #483E3C",
"&  c #5F4D1B",
"*  c #4A4239",
"=  c #524639",
"-  c #554A3B",
";  c #5A4A39",
":  c #604F39",
">  c #635239",
",  c #685739",
"<  c #6B5A39",
"1  c #487420",
"2  c #1D2443",
"3  c #202547",
"4  c #222A47",
"5  c #292C40",
"6  c #27294D",
"7  c #2C344E",
"8  c #2B2B52",
"9  c #2E3252",
"0  c #263950",
"q  c #2F3952",
"w  c #313455",
"e  c #323B52",
"r  c #383E5A",
"t  c #433F46",
"y  c #2A4946",
"u  c #2B4E4B",
"i  c #38414F",
"p  c #3B484F",
"a  c #324252",
"s  c #374A52",
"d  c #394E52",
"f  c #3E445D",
"g  c #275756",
"h  c #285251",
"j  c #265E5E",
"k  c #3B5252",
"l  c #3E5856",
"z  c #296464",
"x  c #2E626F",
"c  c #2B6B6B",
"v  c #396565",
"b  c #376B6B",
"n  c #2F7272",
"m  c #307777",
"M  c #337D7D",
"N  c #454344",
"B  c #40574F",
"V  c #455C4D",
"C  c #405750",
"Z  c #42505F",
"A  c #4A624A",
"S  c #4E6A4A",
"D  c #506E4A",
"F  c #597646",
"G  c #5C7C46",
"H  c #52724A",
"J  c #587748",
"K  c #597948",
"L  c #50665F",
"P  c #474A66",
"I  c #4A4A6A",
"U  c #5C5C77",
"Y  c #516464",
"T  c #576A6A",
"R  c #5C6673",
"E  c #686D7D",
"W  c #359525",
"Q  c #58BA32",
"!  c #7CD328",
"~  c #5F8046",
"^  c #628344",
"/  c #6A8C42",
"(  c #61824A",
")  c #658A4E",
"_  c #6E9244",
"`  c #719545",
"'  c #739A46",
"]  c #779F48",
"[  c #7CA64A",
"{  c #7EAA4C",
"}  c #80AF4E",
"|  c #81B14F",
" . c #83B451",
".. c #84B752",
"X. c #6A6A81",
"o. c #76768A",
"O. c #358181",
"+. c #398B8B",
"@. c #398C8C",
"#. c #3C9292",
"$. c #3E9696",
"%. c #3F9498",
"&. c #3E9898",
"*. c #419D9D",
"=. c #45A7A7",
"-. c #4CAAAA",
";. c #53AAAA",
":. c #5DADAD",
">. c #61AEAE",
",. c #6AB0B0",
"<. c #79B4B4",
"1. c #76B8B8",
"2. c #9AA699",
"3. c #A7B794",
"4. c #82B7B7",
"5. c #FFFCA2",
"6. c #8FC1C1",
/* pixels */
"W Q W 5.1 W W W W W W Q W W 1 W 1 1 W W W 1 W W 1 W Q W W W W Q W W W 1 W W W W W 5.5.1 & 5.5.W W W W W W W W W Q ! W W W W W W ",
"Q W W W 1 W W Q W 1 W W W Q W W 1 W Q W 1 W 1 W W Q Q W W W W Q W W W W W ! Q W W W W 5.5.W W 1 Q ! W W W W W W W W W W Q W W W ",
"Q W 1 W W 1 W W W W W 1 W W W W W W W W W W W W W W W W W Q Q W 1 W 1 W 1 ! W W 1 W W 5.5.W W W W W W W Q W W ! 1 W W W W W W W ",
"W 1 W 1 1 W W W W 1 1 W 1 W 1 W Q 5.5.W Q W W Q W W W W W W Q W W 1 1 W Q 1 W 1 1 W 1 Q W W 1 Q W W W Q 1 W W Q W W Q W W 1 W W ",
"Q W W 1 1 W W Q W W 1 1 1 W W W W 5.5.W W W Q W W W W W W Q W W W Q 1 W 1 W W 1 W W W W W W 1 1 1 W W W 1 W 1 W W Q Q W W 1 W W ",
"1 W W 1 W W Q ! W W 1 1 W Q W 5.5.& 1 5.5.W W W W Q Q Q W Z Z Z Z Z W W 1 W W W 1 Q Q Q W W W 1 W W W W W W W W Q ! W W W W 1 W ",
"W 1 1 W W W W W W 1 1 1 1 W W 5.5.1 & 5.5.W W Q ! W S G / ..[ { [ ../ ^ S 2.Q Q 1 W ! W W W W W W W Q ! W W W W W W W W Q Q W W ",
"1 W W W Q W W 1 1 W 1 W W W W Q W 5.5.W W W W W A / ' ..{ { ..| [ [ [ ..' / D Q W W W Q W W 1 W W W W W W W W W W W W 1 1 W W W ",
"W Q W W W W W W W W W W W Q W ! Q 5.5.W W F F ) ' | ....[ } ..[ [ [ [ ....| ' ) ( 3.W 1 1 1 Q W Q W Q ! Q W Q 1 W W 1 W W 1 1 W ",
"W W W W W W W W Q W Q ! W W Q W W 1 W W ^ /  ...[ ...... .[ [ [ [ [ | ......[ .. .' ^ W Q 1 1 W W W Q W W W W 1 Q W W 1 W W 1 W ",
"W W 1 W W W ! W W W W W W W W W 1 1 1 Y H / | ..[ { ...... .[  .[ | ......} [ .. ./ H L 1 W W ! W W W Q W 1 1 1 W W 1 W W W W W ",
"1 W W W W W W W W Q W Q W Q ! W W W T H / ` [ [ ..[ [ | .............. .[ [  .[ [ ' / H k W W Q Q W W W W W W W W W W Q W W W 1 ",
"W W Q W W W ! Q W W W W W ! W W W Q ^ / / [  ...[ [ [ | .............. .[ [ [ .. .[ / / H W W W W W W 5.Q ! W Q W W W W W W W W ",
"W 1 W Q W W W W 1 W 1 W Q Q W W p H ` [ _ [ ......[ { [  ... .[  .....[ { [  .....[ ` / / A i W ! W 5.1 5.! Q W W W Q W Q ! Q W ",
"W W 1 W 1 1 1 1 W W W Q W W W W S S ` [ / [ { .... .[ [ [ [ [ [ [ [ [ [ [  .....{ [ _ / / A A R W W W 5.W W W W W W W W W W W W ",
"W 1 W 1 1 W W W W W ! W W W Q A A C / / / / [ [ [ ..[ [ [ [ [ [ [ [ [ [ [  .{ [ [ / / / / k V V Q W W Q W W W W W W W Q Q W W W ",
"W 1 W W 1 W W Q Q W Q W W W k A V A H H / / / [ [ ......[ ..........[ ......{ [ / / / H H A B A k W Q W W W W Q ! W W W W W 1 1 ",
"1 W W W W W W W W W W W W P k s H H H H / [ / [ [  . .{ [ ..........[ {  . .[ [ / / / J A A A s k 9 W W Q W W W W W W W W W W W ",
"W W Q W W W Q Q W W W W X.s k V H H H H / [ _ / [ [ [ _ [ [ ......{ [ / [ [ [ / / / / J A A A V k d I W W W W W W Q Q ! W W Q W ",
"W W W W W W Q W W W W W q a s V H H H H / / / / / / / / [ [ [ [ [ [ [ / / / / / / / / D A A A V s a e W Q W W W W W W W W W Q Q ",
"W W W Q W Q W W W W W W 9 d k k S H S A G / / / / / / / _ [ [ [ [ [ _ / / / / / / / ^ S A A A k k k e W W W W W Q Q W W W W W W ",
"W Q 5.5.W W W Q W W W r a k k k k A A H H H H / [ ] / / / / / / / / / / / / / / D A A D H D k k k k 8 w W Q W Q W Q W Q Q Q W W ",
"Q Q 5.5.W ! Q W W W W a a d k k A A D H H H H ^ / / / / / [ / / / / / / / / / / D A A A H H A k k d 8 8 W W W W W W W W Q W W W ",
"5.5.& 1 5.5.W W W Q Q e a a k k V A D H H H A D H ^ H ^ ' [ / / / / / ^ J ^ J D A H S A A A A k k 8 8 e W W Q W Q W W W W W W W ",
"5.5.1 & 5.5.Q W W W 9 a a a s k k V A H H S S H H H H H / / / ~ / / H S A A A A S H H S A A k k d 8 8 8 W Q ! W W W W W Q ! W W ",
"! Q 5.5.W W W W W W e a a a a k k k k A S A H H H H H D H K K D S S S A A H H A A H H A k k k k a e 9 8 8 Q W Q Q W W ! ! Q Q W ",
"Q W 5.5.Q W W 1 W 1 e e e e e a k k V A A A H H H H A H H H H A A S D S A H H D A A A A A k k s e e e 9 8 W W W Q W W W W W W W ",
"W W W Q W W 1 W 1 & e e e a a a e a k A A A A D H D S H H H H H A H H H S S H H A A A A k a e 9 8 8 8 8 8 ! Q W W W Q W W Q Q Q ",
"W W W W W W W 1 W 1 8 e a a a e e e k k k k V A A A S H H H H H A D H H S A A A V k k k k a e e 9 8 8 8 Q Q W W W W W Q W W Q W ",
"W Q W W W Q Q W W W 8 e a a e e e e d k k k B A A A A S H H H S A A S S A A A A B k k k k e e e e 8 8 8 W W W W Q W W W W W W Q ",
"W Q W W W W W W W 1 o.e a e e e e e e k k k k B A A V V S S S A A A A A V A A B k k k k e 9 e e e 8 8 8 Q W Q W Q W W W Q W W Q ",
"W W W W W W 1 W 1 W W 9 e e e a a a e e a s k k k k k k A A A k A A A k k k k k k d a 9 8 8 9 e e 8 8 U Q W W W W W Q W W Q W W ",
"W Q W W W 1 1 & & 1 W 1 9 e a a a e e e e e s k k k k k k k k k k k k k k k k k d e 9 8 8 8 8 8 8 8 I Q W W W Q W Q Q W W ! Q W ",
"W W W W 1 W W W W W 1 1 1 f a a e e e e e e e s d d a k k k k d k k k k a d d d e e 9 8 8 8 8 8 8 W 1 W Q W W W W W W 1 W W W W ",
"W Q W W W 1 W W W W W W W Q 7 a e e e e e e e e e e e s k k a e a k k s e e e e e e 9 8 8 8 8 8 2 W W W Q Q W W W W W W W W W W ",
"1 W W W W W Q W W W W W W W 2 e e e e a a e e e e e e e e e e e e e e e e e e e e e e 8 8 8 8 8 W W W W W W W W W W W W W 1 Q W ",
"W 1 W W W W Q Q W ! Q Q W W W Q E 4 e a a a e e e e e e e e e e e e e e e e 8 9 e w 8 8 8 3 Q W 1 W W W W W W Q W Q W W 1 W W ! ",
"Q W 1 1 1 W W W W Q ! W Q W Q Q ! Q 2 a a a a a e e e e e e e e e e 8 e e e 8 8 8 8 8 8 5.1 5.W W W 1 W W W W W W Q W W 1 W W W ",
"W W 1 W Q Q Q ! Q W W W W W W W W ! W 7 e a e e e e e e e e e e e 8 8 8 e 9 8 8 8 8 8 W W 5.W ! W W ! Q W W 1 W W W W W W W W W ",
"W W 1 W ! Q 1 1 Q Q 1 1 1 1 W W Q W ! =.%.0 7 7 7 5 5 7 e e e e 9 8 8 6 5 6 6 6 6 x =.=.W W W W W W W 1 W W W W Q W W Q Q W W Q ",
"Q ! W W 1 Q W Q W W W 5.5.1 W W W >.=.$.M M M v * * * = $ @ N t % @ @ * * = l M M M M $.=.;.W W W W W W 1 W 1 1 W 1 W W W W W W ",
"W ! W W W W Q ! W W 1 5.5.W & & =.=.#.M M b k ; ; ; * * ; ; ; ; ; ; = * = ; ; = M M M M @.=.=.1 1 W W W W W W W Q W W W W W W W ",
"W W W W W Q W Q 1 5.5.& 1 5.5.=.=.#.M M N ; ; ; ; ; = * ; ; ; ; ; ; ; * ; ; ; ; ; - v M M +.=.=.W W Q Q W W Q ! W Q W W Q Q W W ",
"W Q W W W W W W W 5.5.1 & 5.=.=.$.M M M   $ * * * * * $ > ; ; ; ; ; > * * * * * * $ y M M M @.=.W 5.5.W W W 1 Q 1 W W W W W W W ",
"W ! Q W W W W W Q W W 5.5.=.=.=.M M M M z u . . . . X o > , > ; > < >   . . . . . j n M M M M =.=.=.5.W W W W W Q ! W W W W W W ",
"W Q 1 1 W 1 Q W W 1 W 5.<.=.=.=.M M M M M M M M c c j + * , < < < > * j z c c M M M M M M M M =.=.=.:.5.5.W W W W 1 1 W W W Q W ",
"1 W W W W Q ! W W W Q W :.=.=.*.M M M M M M M M M M n j # ; < < < *   j M M M M M M M M M M M $.=.=.;.5.5.Q W W W W W W Q 1 1 W ",
"W W W W W W W Q W W W W =.=.=.=.M M M M M M M M M M M j X * , < : * h z M M M M M M M M M M M =.=.=.=.W W W W W W W W W W W W W ",
"W Q W W W W W W W W Q W <.=.=.=.$.M M M M M M M M M M M j * , < =   j M M M M M M M M M M M @.=.=.=.:.W 1 1 W W W Q ! 1 Q W W W ",
"! ! W W ! W W W W Q W Q 6.=.=.=.=.O.M M M M M M M M M M z   * , * X M M M M M M M M M M M M =.=.=.=.1.W W 1 W W W W W 1 W W 1 Q ",
"Q Q W W Q W W W W W W W W -.=.=.=.=.O.M M M M M M M M M M O * = # g M M M M M M M M M M M =.=.=.=.=.W W W W W 1 W W 1 W 1 W 1 1 ",
"W 1 1 Q ! W W W Q W W W W W =.=.=.=.=.M M M M M M M M M M j o * u m M M M M M M M M M M =.=.=.=.=.W W 1 W W W W W 1 W W W W 1 1 ",
"W W W Q W W Q W W Q W Q Q ! W =.=.=.=.=.*.M M M M M M M M M j u c M M M M M M M M M *.=.=.=.=.=.Q W W 1 W Q Q W W W Q W W W 1 1 ",
"W W W W W W W W W W W W 1 Q 1 1 =.=.=.=.=.=.=.O.M M M M M M M M M M M M M M M M =.=.=.=.=.=.=.Q W Q W W Q W W 1 W W W W Q W Q W ",
"1 1 W W Q W W W Q Q W W W W W W W 4.=.=.=.=.=.=.=.*.O.O.O.O.M M M O.O.O.O.&.=.=.=.=.=.=.=.,.W W W W W W Q W 1 W W W W ! Q W W W ",
"Q W W Q W W W W W W W W W W Q W W 1 W ,.=.=.=.=.=.=.=.=.=.=.=.=.=.=.=.=.=.=.=.=.=.=.=.,.1 1 W 1 1 1 W 1 W W W Q W W W W W W W W ",
"W W W ! Q W Q W W ! W W W Q W W W W W Q W W 4.=.=.=.=.=.=.=.=.=.=.=.=.=.=.=.=.=.4.! Q W W W 1 1 W W W W 1 1 W 1 W W 1 W W Q ! W ",
"1 Q W W Q W W W Q W Q W W W W W W W W W W 1 W W 1 1 W Q Q W =.=.=.1 W W W W W W W W W W W 1 W W W Q Q W W W W W 1 W W Q W W W W ",
"W W 1 W 1 W Q W W W W W W W W W 1 W W W W W 1 W W Q W W W W W W 1 W W 1 1 W W W Q W W ! Q W 1 W W W W 1 W 1 W Q W W W W 5.W 1 & ",
"& & & 1 W W W W W W W W W W W W W W W W W Q 1 1 W W W W W W W W W 1 W W W W W W W Q W Q W W W W 1 W 1 W W W W W W W 1 5.1 5.W 1 ",
"1 & W 1 1 Q ! W W Q W W W W ! W W Q W W W W W W 5.W W W W W W W W W W W Q ! W W W W W W W W Q Q W Q 1 W 1 Q ! W W Q W W 5.1 W W ",
"W W W 1 W W W W W W W W W W W W Q ! W W W W Q 5.1 5.Q W W Q W W 1 W W W W W W W W W W 5.5.W W W W W W W W Q W 1 W W W W W W 1 W ",
"1 1 W 5.W Q W W W W W ! W 1 W W W 1 W W W W W W 5.W W W W W W W W W Q W W W W W Q W ! 5.5.W 1 W W W Q W W W W 1 W 1 Q W W W Q ! ",
"W 1 5.1 5.Q W W W W W W W W W 1 1 W W Q W W W W 1 1 W W W Q W W W Q ! W Q ! W W W 5.5.& 1 5.5.W 1 W W W Q ! W W 1 W W W W 1 W ! "
};
