/* XPM */
static char *d6fa308664fa4196a202770bc3842908zJq0Brc0f6OA2ILf[] = {
/* columns rows colors chars-per-pixel */
"64 64 132 2 ",
"   c #322C23",
".  c #362E28",
"X  c #333525",
"o  c #3C342C",
"O  c #373E29",
"+  c #40382F",
"@  c #463E35",
"#  c #443B38",
"$  c #344229",
"%  c #3B462F",
"&  c #364C2C",
"*  c #36522E",
"=  c #37582F",
"-  c #386132",
";  c #3D6A36",
":  c #5F4D1B",
">  c #44453B",
",  c #4A4239",
"<  c #4C483A",
"1  c #524639",
"2  c #574839",
"3  c #5A4A39",
"4  c #48553D",
"5  c #475F3E",
"6  c #635239",
"7  c #695739",
"8  c #6B5A39",
"9  c #487420",
"0  c #42723A",
"q  c #4A7141",
"w  c #4A7E41",
"e  c #854766",
"r  c #824E68",
"t  c #359525",
"y  c #58BA32",
"u  c #7CD328",
"i  c #4D8644",
"p  c #4F8946",
"a  c #518C47",
"s  c #528F49",
"d  c #55944B",
"f  c #57984D",
"g  c #599C4F",
"h  c #5B9F50",
"j  c #5DA352",
"k  c #60A855",
"l  c #65AA5A",
"z  c #6DAD63",
"x  c #70AD67",
"c  c #72B068",
"v  c #7EB576",
"b  c #83B77C",
"n  c #A34584",
"m  c #B8419F",
"M  c #AB618F",
"N  c #A66392",
"B  c #AD6491",
"V  c #C459AC",
"C  c #C949B1",
"Z  c #E344C7",
"A  c #E24CC8",
"S  c #E751CD",
"D  c #E65ACD",
"F  c #EC5FD2",
"G  c #E761CF",
"H  c #E07FCF",
"J  c #E964D1",
"K  c #ED6CD5",
"L  c #F06AD7",
"P  c #E574D1",
"I  c #ED70D6",
"U  c #EF70D8",
"Y  c #EF7ADA",
"T  c #F273D9",
"R  c #F57ADD",
"E  c #F77EE0",
"W  c #F87FE0",
"Q  c #89B582",
"!  c #88B980",
"~  c #95BE8F",
"^  c #A5BDA1",
"/  c #9BC195",
"(  c #A6C4A1",
")  c #A8C6A4",
"_  c #B0C1AE",
"`  c #FFFCA2",
"'  c #DB8ACC",
"]  c #DE9ED3",
"[  c #F18ADE",
"{  c #E492D5",
"}  c #E09DD4",
"|  c #D1ACCA",
" . c #CCB1C8",
".. c #DEA3D4",
"X. c #DEB1D6",
"o. c #E0ABD7",
"O. c #FA82E2",
"+. c #F18FE2",
"@. c #FD89E6",
"#. c #FF8CE8",
"$. c #FA92E5",
"%. c #FF91E9",
"&. c #FE9CEB",
"*. c #F0A0E1",
"=. c #FEA5ED",
"-. c #FFAEEF",
";. c #FFB0EF",
":. c #F4BDE9",
">. c #FDB9EF",
",. c #FFB4F0",
"<. c #FEBCF2",
"1. c #CDCCCD",
"2. c #C7D3C6",
"3. c #D3C2D0",
"4. c #D8C7D4",
"5. c #DFC1D9",
"6. c #DFCFDC",
"7. c gainsboro",
"8. c #E1CBDC",
"9. c #EBC7E4",
"0. c #F1C0E7",
"q. c #F7C5ED",
"w. c #E4D1E2",
"e. c #FFC5F3",
"r. c #FFC9F6",
"t. c #FFCCFA",
"y. c #FFD2FF",
"u. c #FFDDFF",
"i. c #FFE3FF",
"p. c #FFECFF",
"a. c #FFF1FF",
"s. c #FFF6FF",
/* pixels */
"t y t ` 9 t t t t t t y t t 9 t 9 9 t t t 9 t t 9 t y t t t t y t t t 9 t t t t t ` ` 9 : ` ` t t t t t t t t t y u t t t t t t ",
"y t t t 9 t t y t 9 t t t y t t 9 t y t 9 t 9 t t y y t t t t y t t t t t u y t t t t ` ` t t 9 y u t t t t t t t t t t y t t t ",
"y t 9 t t 9 t t t t t 9 t t t t t t t t t t t t t t t t t y y t 9 t 9 t 9 u t t 9 t t ` ` t t t t t t t y t t u 9 t t t t t t t ",
"t 9 t 9 9 t t t t 9 9 t 9 t 9 t y ` ` t y t t y t t t t t t y t t 9 9 t y 9 t 9 9 t 9 y t t 9 y t t t y 9 t t y t t y t t 9 t t ",
"y t t 9 9 t t y t t 9 9 9 t t t t ` ` t t t y t t t t t t y t t t y 9 t 9 t t 9 t t t t t t 9 9 9 t t t 9 t 9 t t y y t t 9 t t ",
"9 t t 9 t t y u t t 9 9 t y t ` ` : 9 ` ` t t t t y y y t t 9 t 9 t t t 9 t t t 9 y y y t t t 9 t t t t t t t t y u t t t t 9 t ",
"t 9 9 t t t t t t 9 9 9 9 t t ` ` 9 : ` ` t t y u t t t t t t 9 t t t y t t y y 9 t u t t t t t t t y u t t t t t t t t y y t t ",
"9 t t t y t t 9 9 t 9 t t t t y t ` ` t t t t t t y t t $.$.$.$.$.8.y t t t u y t t t y t t 9 t t t t t t t t t t t t 9 9 t t t ",
"t y t t t t t t t t t t t y t u y ` ` t t y y t t e.y.u.a.p.p.p.s.u.u.e.9.1.t t y u t 9 9 9 y t y t y u y t y 9 t t 9 t t 9 9 t ",
"t t t t t t t t y t y u t t y t t 9 t t t t 4.q.u.i.s.p.p.s.s.p.p.p.s.i.u.t.4.t t t t t y 9 9 t t t y t t t t 9 y t t 9 t t 9 t ",
"t t 9 t t t u t t t t t t t t t 9 9 9 t t y.u.i.a.s.s.p.a.s.p.p.p.p.s.s.s.i.u.y.w.6.t t 9 t t u t t t y t 9 9 9 t t 9 t t t t t ",
"9 t t t t t t t t y t y t y u t t t t y.u.a.s.p.s.s.s.s.p.p.p.p.p.a.s.s.s.p.s.s.p.u.w.t t t t y y t t t t t t t t t t y t t t 9 ",
"t t y t t t u y t t t t t u t t t y :.y.u.a.s.p.p.s.s.s.s.p.s.p.a.s.s.s.a.p.s.s.u.y.<.7.t t t t t t t ` y u t y t t t t t t t t ",
"t 9 t y t t t t 9 t 9 t y y t t t 0.y.u.i.p.p.s.p.p.a.s.s.s.s.s.s.s.s.p.p.a.p.p.p.u.y.,.9 9 t t u t ` 9 ` u y t t t y t y u y t ",
"t t 9 t 9 9 9 9 t t t y t t t t 5.t.u.u.p.a.s.p.p.p.a.s.s.s.s.s.s.s.s.p.p.p.s.s.p.u.u.y.5.t t t t t t ` t t t t t t t t t t t t ",
"t 9 t 9 9 t t t t t u t t t y +.y.i.p.u.p.s.s.s.p.p.p.s.s.s.p.s.s.s.p.p.p.s.s.s.p.i.u.u.e.[ | t y t t y t t t t t t t y y t t t ",
"t 9 t t 9 t t y y t y t t t y t.t.i.p.u.p.a.s.s.s.p.p.p.p.p.p.p.p.p.p.p.a.s.s.a.p.i.u.u.e.e.*.t t t y t t t t y u t t t t t 9 9 ",
"9 t t t t t t t t t t t t t <.t.<.u.u.u.u.p.p.p.s.p.p.p.p.p.p.p.p.p.p.p.s.p.p.p.i.u.u.u.-.e.>.| u t t t y t t t t t t t t t t t ",
"t t y t t t y y t t t t y -.e.e.e.y.y.u.u.u.p.p.s.s.s.p.s.s.s.s.s.p.s.s.s.a.p.u.u.u.y.y.e.,.e.-.3.y u t t t t t t y y u t t y t ",
"t t t t t t y t t t t t { -.%.y.y.y.y.u.p.u.i.p.s.s.a.p.s.s.s.s.s.p.p.s.s.p.p.u.u.u.y.e.e.e.=.-.Y t y t y t t t t t t t t t y y ",
"t t t y t y t t t t t o.&.-.,.y.y.y.y.u.p.i.u.p.p.p.i.p.p.s.s.s.p.p.u.p.p.p.u.u.u.u.y.e.e.e.<.-.=.G t t t t t t y y t t t t t t ",
"t y ` ` t t t y t t t T #.&.<.y.y.y.y.u.u.u.u.u.u.u.u.p.p.p.p.p.p.p.u.u.u.u.u.u.u.u.y.e.e.e.e.&.%.#.y t t y t y t y t y y y t t ",
"y y ` ` t u y t t t t K &.-.-.t.y.t.e.y.u.u.u.u.u.u.u.i.p.p.p.p.p.i.u.u.u.u.u.u.u.u.t.e.e.e.,.-.-.R y t t t t t t t t t y t t t ",
"` ` : 9 ` ` t t t y I @.-.-.-.-.e.e.y.y.y.y.u.p.p.u.u.u.u.u.u.u.u.u.u.u.u.u.u.y.e.e.t.y.y.;.-.-.-.J G t t t y t y t t t t t t t ",
"` ` 9 : ` ` y t t t #.#.&.-.-.e.e.t.y.y.y.y.u.u.u.u.u.u.p.u.u.u.u.u.u.u.u.u.u.y.e.e.e.y.y.e.-.-.=.G J ' t y u t t t t t y u t t ",
"u y ` ` t t t t t t R O.#.=.-.e.e.t.y.y.y.e.t.y.u.y.y.i.p.u.u.u.u.u.u.y.u.y.t.e.y.t.e.e.e.e.-.-.G G R ' t y t y y t t u u y y t ",
"y t ` ` y t t 9 t G #.#.#.&.-.-.<.e.y.y.t.t.y.y.y.y.y.u.u.u.u.u.u.y.t.e.e.e.e.e.y.y.t.e.e.-.-.=.J G G G t t t t y t t t t t t t ",
"t t t y t t 9 t 9 R #.#.#.@.-.-.-.-.e.r.e.y.y.y.y.y.t.y.y.y.y.r.r.r.e.e.t.y.e.e.y.y.e.,.-.-.-.%.R T G J 9 u y t t t y t t y y y ",
"t t t t t t t 9 t R R R R R %.-.-.<.e.e.e.y.y.y.y.e.y.y.y.y.e.e.t.y.y.e.y.y.y.e.e.e.e.e.-.-.=.O.R R T G y y t t t t t y t t y t ",
"t y t t t y y t t R R O.#.#.#.R #.-.e.e.e.e.t.y.y.r.y.y.y.y.y.e.y.y.y.t.t.y.y.e.e.e.e.,.#.@.T G G G G G t t t t y t t t t t t y ",
"t y t t t t t t t G R #.#.@.R R O.-.-.-.-.,.e.e.e.e.y.y.y.y.y.e.t.y.y.t.e.e.e.e.-.-.-.-.#.R R K G G G 7.y t y t y t t t y t t y ",
"t t t t t t 9 t 9 G R #.#.R R R E =.-.-.-.,.e.e.e.e.r.y.y.y.t.e.e.t.t.e.e.e.e.<.-.-.-.-.O.R R R J G G { y t t t t t y t t y t t ",
"t y t t t 9 9 : : o.R #.O.R R R O.E -.-.-.-.,.e.e.e.<.r.t.t.e.e.e.e.e.<.e.e.,.-.-.-.-.R K R R R J G G { t t t y t y y t t u y t ",
"t t t t 9 t t t t t K R R R @.#.#.O.R %.&.-.-.-.-.-.;.e.e.e.,.e.e.e.,.-.-.-.-.-.-.#.U J G K R R J G P t y t t t t t t 9 t t t t ",
"t y t t t 9 t t t t t K R @.#.#.O.R R R R @.-.-.-.-.-.-.-.-.-.-.-.-.-.-.-.-.-.-.R U G G G G G G G G t t y y t t t t t t t t t t ",
"9 t t t t t y t t t t t H O.#.@.R R R R R R $.=.=.@.-.-.-.-.=.-.-.-.-.@.=.=.=.R R U G G G G G D  .7.t t t t t t t t t t t 9 y t ",
"t 9 t t t t y y t u y y t F #.@.R R W R R R R R R R &.-.-.&.R O.=.-.&.R R R R R R T G G G G G A 1.t t t t t t y t y t t 9 t t u ",
"y t 9 9 9 t t t t y u t y G R O.R R @.#.R R R R R R R R R R R R R R R R R R R R R R G G G G G ] t t 9 t t t t t t y t t 9 t t t ",
"t t 9 t y y y u y t t t t t t } S R @.#.@.O.R R R R R R R R R R R T R R R K J R T J G G A X.t u t t u y t t 9 t t t t t t t t t ",
"t t 9 t u y 9 9 y y 9 9 9 9 t t y Z @.#.#.#.#.R R R R R R R R R R G R R R K G G G G G X.t t t t t t t 9 t t t t y t t y y t t y ",
"y u t t 9 y t y t t t ` ` 9 t t t 7.A T @.O.R R R R R R R R R R K G G R K G G G G D ..y t y t t t t t t 9 t 9 9 t 9 t t t t t t ",
"t u t t t t y u t t 9 ` ` t : : 9 2.c k V L L L m m L T R R R K G G D m C D D D N k k t t t 9 9 9 t t t t t t t y t t t t t t t ",
"t t t t t y t y 9 ` ` : 9 ` ` 9 ! k g i i i q < , , 1 e n B M r n n , , 1 4 i i i i f k k 9 y t t t y y t t y u t y t t y y t t ",
"t y t t t t t t t ` ` 9 : ` ` k k g i i w 4 2 3 3 , , 3 3 3 3 3 3 2 , , 3 3 1 i i i i s k k u t t ` ` t t t 9 y 9 t t t t t t t ",
"t u y t t t t t y t t ` ` t k k g i i > 2 3 3 3 3 2 , 3 3 3 3 3 3 3 , 3 3 3 3 3 2 5 i i a k k ^ 9 ` ` t t t t t y u t t t t t t ",
"t y 9 9 t 9 y t t 9 t ` ` k k j i i i   # , , , , , @ 6 3 3 3 3 3 6 , , , , , , # $ i i i a k k _ : 9 ` ` t t t t 9 9 t t t y t ",
"9 t t t t y u t t t y t k k k i i i i ; = X X X X X . 6 6 6 3 6 7 6   X X X X X - 0 i i i i k k k 9 : ` ` y t t t t t t y 9 9 t ",
"t t t t t t t y t t t t k k k i i i i i i i i 0 0 - & , 6 8 8 8 6 , - - 0 0 i i i i i i i i j k k k ` t t t t t t t t t t t t t ",
"t y t t t t t t t t y v k k k i i i i i i i i i i w - + 3 8 8 8 1 . - i i i i i i i i i i i d k k k ` t 9 9 t t t y u 9 y t t t ",
"u u t t u t t t t y t k k k k i i i i i i i i i i i - O , 6 8 6 , & - i i i i i i i i i i i k k k k t t t 9 t t t t t 9 t t 9 y ",
"y y t t y t t t t t t ) k k k j i i i i i i i i i i i - @ 6 8 3 o - i i i i i i i i i i i a k k k k t t t t t 9 t t 9 t 9 t 9 9 ",
"t 9 9 y u t t t y t t ^ k k k k p i i i i i i i i i i 0   , 7 ,   w i i i i i i i i i i i k k k k x t 9 t t t t t 9 t t t t 9 9 ",
"t t t y t t y t t y t y z k k k k a i i i i i i i i i i $ , 1 @ * i i i i i i i i i i i k k k k k t t 9 t y y t t t y t t t 9 9 ",
"t t t t t t t t t t t t 9 z k k k k p i i i i i i i i i ; o , % 0 i i i i i i i i i i j k k k k t y t t y t t 9 t t t t y t y t ",
"9 9 t t y t t t y y t t t t k k k k k h i i i i i i i i i - * ; i i i i i i i i i h k k k k k t t t t t y t 9 t t t t u y t t t ",
"y t t y t t t t t t t t t t y k k k k k k j d i i i i i i i i i i i i i i i i j k k k k k k t 9 9 9 t 9 t t t y t t t t t t t t ",
"t t t u y t y t t u t t t y t t t l k k k k k k k p p p p i i i p p p p f k k k k k k k z t 9 9 t t t t 9 9 t 9 t t 9 t t y u t ",
"9 y t t y t t t y t y t t t t t t t ~ k k k k k k k k k k k k k k k k k k k k k k k b t t 9 t t t y y t t t t t 9 t t y t t t t ",
"t t 9 t 9 t y t t t t t t t t t 9 t t t t / k k k k k k k k k k k k k k k k k / ( t t u y t 9 t t t t 9 t 9 t y t t t t ` t 9 : ",
": : : 9 t t t t t t t t t t t t t t t t t y 9 9 t t t t t k k k Q 9 t t t t t t t y t y t t t t 9 t 9 t t t t t t t 9 ` 9 ` t 9 ",
"9 : t 9 9 y u t t y t t t t u t t y t t t t t t ` t t t t t t t t t t t y u t t t t t t t t y y t y 9 t 9 y u t t y t t ` 9 t t ",
"t t t 9 t t t t t t t t t t t t y u t t t t y ` 9 ` y t t y t t 9 t t t t t t t t t t ` ` t t t t t t t t y t 9 t t t t t t 9 t ",
"9 9 t ` t y t t t t t u t 9 t t t 9 t t t t t t ` t t t t t t t t t y t t t t t y t u ` ` t 9 t t t y t t t t 9 t 9 y t t t y u ",
"t 9 ` 9 ` y t t t t t t t t t 9 9 t t y t t t t 9 9 t t t y t t t y u t y u t t t ` ` : 9 ` ` t 9 t t t y u t t 9 t t t t 9 t u "
};
