/* XPM */
static char *_5aa4bfc5c764a8eaef44200703999ba[] = {
/* columns rows colors chars-per-pixel */
"64 64 81 1 ",
"  c #5F4D1B",
". c #487420",
"X c #5D4545",
"o c #604747",
"O c #654B4B",
"+ c #6D4D4D",
"@ c #714F4F",
"# c #6E5252",
"$ c #745454",
"% c #7B5555",
"& c #7C5959",
"* c #815656",
"= c #895757",
"- c #845B5B",
"; c #8C5D5D",
": c #905E5E",
"> c #866262",
", c #8D6262",
"< c #8C6B6B",
"1 c #946363",
"2 c #956868",
"3 c #9B6B6B",
"4 c #947474",
"5 c #9F7474",
"6 c #9F7F7F",
"7 c #A46E6E",
"8 c #A96F6F",
"9 c #A57070",
"0 c #AC7272",
"q c #A77E7E",
"w c #B17575",
"e c #B57C7C",
"r c #359525",
"t c #58BA32",
"y c #7CD328",
"u c #A18282",
"i c #A78383",
"p c #AE8787",
"a c #A98B8B",
"s c #BA8585",
"d c #BC8686",
"f c #BC8888",
"g c #BF8C8C",
"h c #B29494",
"j c #B59898",
"k c #BC9898",
"l c #BB9E9E",
"z c #BDA0A0",
"x c #C39494",
"c c #C49494",
"v c #C89999",
"b c #C3A1A1",
"n c #C5A2A2",
"m c #C3A7A7",
"M c #CDA4A4",
"N c #C7AAAA",
"B c #C8ABAB",
"V c #CCABAB",
"C c #CDADAD",
"Z c #D0A7A7",
"A c #CCB1B1",
"S c #D0B1B1",
"D c #D6B2B2",
"F c #D0B5B5",
"G c #D4B6B6",
"H c #DAB7B7",
"J c #D7BABA",
"K c #D7BCBC",
"L c #DBB9B9",
"P c #D8BEBE",
"I c #DDBCBC",
"U c #FFFCA2",
"Y c #DDC3C3",
"T c #DFC5C5",
"R c #E0C1C1",
"E c #E0C7C7",
"W c #E2C9C9",
"Q c #E5CBCB",
"! c #E7CECE",
"~ c #E8CFCF",
"^ c #EAD1D1",
/* pixels */
"rtrU.rrrrrrtrr.r..rrr.rr.rtrrrrtrrr.rrrrrUU. UUrrrrrrrrrtyrrrrrr",
"trrr.rrtr.rrrtrr.rtr.r.rrttrrrrtrrrrrytrrrrUUrr.tyrrrrrrrrrrtrrr",
"tr.rr.rrrrr.rrrrrrrrrrrrrrrrrttr.r.r.yrr.rrUUrrrrrrrtrry.rrrrrrr",
"r.r..rrrr..r.r.rtUUrtrrtrrrrrrtrr..rt.r..r.trr.trrrt.rrtrrtrr.rr",
"trr..rrtrr...rrrrUUrrrtrrrrrrtrrrt.r.rr.rrrrrr...rrr.r.rrttrr.rr",
".rr.rrtyrr..rtrUU .UUrrrrtttrr.r.rrr.rrr.tttrrr.rrrrrrrrtyrrrr.r",
"r..rrrrrr....rrUU. UUrrtyrrrrrr.rrrtrrtt.ryrrrrrrrtyrrrrrrrrttrr",
".rrrtrr..r.rrrrtrUUrrrrrrtrrtr.rrttrrrytrrrtrr.rrrrrrrrrrrr..rrr",
"rtrrrrrrrrrrrtrytUUrrttrrrrrrrr.rrrrrrrrtyr...trtrtytrt.rr.rr..r",
"rrrrrrrrtrtyrrtrr.rrrrryrttrrrrrrrrrrrrrrrrrt..rrrtrrrr.trr.rr.r",
"rr.rrryrrrrrrrrr...rrttrrrrrtrrtrtrttyrryrrr.rryrrrtr...rr.rrrrr",
".rrrrrrrrtrtrtyrrrrrrrrr.rr.rrrrrtrytrrrrrtrrrrttrrrrrrrrrrtrrr.",
"rrtrrrytrrrrryrrrtyrrtr......rttrrrrrrtrrryrrrrrrrrUtyrtrrrrrrrr",
"r.rtrrrr.r.rttrrrrrrr.rrr.rrtrrrrrrtytrrrrrr..rryrU.Uytrrrtrtytr",
"rr.r....rrrtrrrrrttrrrrr.rrrr;1111;%rrrr.rr.rrrrrrrUrrrrrrrrrrrr",
"r.r..rrrrryrrrtrtrrryrrtrrr%;1111111%tyrr..rrrtrtrrtrrrrrrrttrrr",
"r.rr.rrttrtrrrtrrrrrytrtr*11111111111rrrrr.r..rrrrtrrrrtyrrrrr..",
".rrrrrrrrrrrrrrrrrrrrrr%111111111:1111;*r.t.rtrtyrrrtrrrrrrrrrrr",
"rrtrrrttrrrrtrrrrU.r.r;11111:;;;;;;,1:11,rrrrrrrrtyrrrrrrttyrrtr",
"rrrrrrtrrrrrrrrtU.U%1,:1111,;--%%%%-;;,11,;1.tyrrrtrtrrrrrrrrrtt",
"rrrtrtrrrrrrrrrrrU%;111111;;-%$#++#$--;;1111%rtrtrrrrrrrttrrrrrr",
"rtUUrrrtrrrttrr.111111111;--$###++###*--;:111,%rrrtrrtrtrtrtttrr",
"ttUUrytrrrrrt.r,1111111-=-*$####++####$*-,111111*ttrrrrrrrrrtrrr",
"UU .UUrrrttrrr;111111;--=%#####+++#+###$*-;111111%rrrrtrtrrrrrrr",
"UU. UUtrrrrr,,11111;---%%####+$$<$++#####%*-;;11111;;tyrrrrrtyrr",
"ytUUrrrrrrr,22211;;*%%$#+###@6jzFh<$+#####$%-;1111111,rttrryyttr",
"trUUtrr.r.,21111;-$$####+++4NE^^^!KA-++#####%-;;1:11111rtrrrrrrr",
"rrrtrr.r%,1211;;-$######+-NT~^^^^^^^Yl++####@*--;;11111rrrtrrttt",
"rrrrrrr.12211,-=$#####+$>P^^^^^^^^^^^^Wa@###+##%1111111*rrrtrrtr",
"rtrrrttr122111&######%<F^^^^^^^^^^^^^^^Wh>+#++#$-:80001Otrrrrrrt",
"rtrrrrrr122221>&####>lQ^^^^^^^^^^^^^^^^^^Eu<++#$10www0>otrrrtrrt",
"rrrrrr.r,2222221-$#-mQ^^^^^^^^^^^^^^^^^^^^^K4+%10www0,$orrtrrtrr",
"rtrrr.. &,1222222>2B!^^^^^^^^^^^^^^^^^^^^^^^Ki30www7-$#orttrrytr",
"rrrr.rrr#$&12222223pG^^^^^^^^^^^^^^^^^^^^^^^Ex0www0&###orrr.rrrr",
"rtrrr.rr###$122222222n~^^^^^^^^^^^^^^^^^^^^^Rfwww1$####orrrrrrrr",
".rrrrrtr####$&,1122222CE^^^^^^^^^^^^^^^^^^^!gww01######orrrrr.tr",
"r.rrrrtt######$-,222222qVJ^^^^^^^^^^^^^^^^^!sw0>$######ortrr.rry",
"tr...rrr+#######$>,222222qST^^^^^^^^^^^^^^^Lw0,$######+rrtrr.rrr",
"rr.rtttyt+#######$$>2222225pbQ^^^^^^^^^^^^Hdw3$######+.rrrrrrrrr",
"rr.ryt..tt+########&122222223kMMD!^^^^^^IZfw7&######Orrrtrrttrrt",
"tyrr.trtrrrX########$>1222222239eeecvvvvsww1$######+.r..r.rrrrrr",
"ryrrrrtyrr.UU+########>11222222270wwwwww00&########rrrrrtrrrrrrr",
"rrrrrtrt.UU .U+########&>>,,122223977777,%######+rttrrtyrtrrttrr",
"rtrrrrrrrUU. UUrO#########$$->>>>>>&&&$#########rUUrrr.t.rrrrrrr",
"rytrrrrrtrrUUrr..OO###########################Or.UUrrrrrtyrrrrrr",
"rt..r.trr.rUUrtr..rO########################orrUU .UUrrrr..rrrtr",
".rrrrtyrrrtrrtrr.rrr.O####################X.rrrUU. UUtrrrrrrt..r",
"rrrrrrrtrrrrrrrtrrrrrrO##################or.rrrrrUUrrrrrrrrrrrrr",
"rtrrrrrrrrtrrrtyrrr.r..r################rrrr.rtrrUUr..rrrty.trrr",
"yyrryrrrrtrtrtrrttrrr.rtrO+++++++++++++rrr.rrrrrr.rrr.rrrrr.rr.t",
"ttrrtrrrrrrrrrrtrtyr.r.tyrtytryrrrtyrrttr.rrrryrtrrrrrr.rr.r.r..",
"r..tyrrrtrrrrrrrrrr..rrr.rrrrttr.rrrrr.rrrrrtrtrrrr.rrrrr.rrrr..",
"rrrtrrtrrtrttyrrrrrr.rrrrrrrrrrrr.rrrr.rrrrrrrrrtrr.rttrrrtrrr..",
"rrrrrrrrrrrr.t..r..rr.r..rtrrtrtrrr..rr.rrrrtyrtrtrrtrr.rrrrtrtr",
"..rrtrrrttrrrrrrrrrr.rr.rrrrrrrrtr.tr.r.trrrrrrrrrrrtr.rrrrytrrr",
"trrtrrrrrrrrrrtrr.rtrrrrrrrrrrrr.tytrrrrrrrr..r...r.rrrtrrrrrrrr",
"rrrytrtrryrrrtrrrrrtrrr.t..rrrrrrrtrrrtrrytrrr..rrrr..r.rr.rrtyr",
".trrtrrrtrtrrrrrrrrrr.rr..rttrrr..rrrrrrrrrrr.rrrttrrrrr.rrtrrrr",
"rr.r.rtrrrrrrrrr.rrrrr.rrtrrrrrr.rr..rrrtrrytr.rrrr.r.rtrrrrUr. ",
"   .rrrrrrrrrrrrrrrrrt..rrrrrrrrr.rrrrrrrtrtrrrr.r.rrrrrrr.U.Ur.",
". r..tyrrtrrrryrrtrrrrrrUrrrrrrrrrrrtyrrrrrrrrttrt.r.tyrrtrrU.rr",
"rrr.rrrrrrrrrrrrtyrrrrtU.Utrrtrr.rrrrrrrrrrUUrrrrrrrrtr.rrrrrr.r",
"..rUrtrrrrryr.rrr.rrrrrrUrrrrrrrrrtrrrrrtryUUr.rrrtrrrr.r.trrrty",
"r.U.Utrrrrrrrrr..rrtrrrr..rrrtrrrtyrtyrrrUU .UUr.rrrtyrr.rrrr.ry"
};
