/* XPM */
static char *a6f8793750924960ac6c7cf80b364815l64jr3TEJiQDcCEI[] = {
/* columns rows colors chars-per-pixel */
"64 64 64 1 ",
"  c #5F4D1B",
". c #487420",
"X c #7F4F49",
"o c #7E5049",
"O c #864F49",
"+ c #884F49",
"@ c #8C4E4A",
"# c #85534B",
"$ c #83544D",
"% c #84544E",
"& c #88534D",
"* c #8D534D",
"= c #89554E",
"- c #8B5751",
"; c #8C5752",
": c #865B52",
"> c #895A53",
", c #8C5B52",
"< c #885C53",
"1 c #8F5854",
"2 c #8B5E54",
"3 c #8E5D55",
"4 c #8C5F58",
"5 c #925B53",
"6 c #915D53",
"7 c #925B54",
"8 c #925C55",
"9 c #975E57",
"0 c #9A5A54",
"q c #995E56",
"w c #935F59",
"e c #945F5A",
"r c #8B6057",
"t c #8E6359",
"y c #8F685D",
"u c #916157",
"i c #90615A",
"p c #94625A",
"a c #90655A",
"s c #97645A",
"d c #95635C",
"f c #91665E",
"g c #95665C",
"h c #986158",
"j c #9C625A",
"k c #99665F",
"l c #936A5F",
"z c #96685D",
"x c #99685F",
"c c #9A6660",
"v c #9E6760",
"b c #956A60",
"n c #956C60",
"m c #9A6960",
"M c #359525",
"N c #58BA32",
"B c #7CD328",
"V c #8E8E8E",
"C c gray61",
"Z c #AAAAAA",
"A c gray75",
"S c #FFFCA2",
"D c #D5D5D5",
"F c gray93",
/* pixels */
"MNMS.MMMMMMNMM.M..MMM.MM.MNMMMMNMMM.MMMMMSS. SSMMMMMMMMMNBMMMMMM",
"NMMM.MMNM.MMMNMM.MNM.M.MMNNMMMMNMMMMMBNMMMMSSMM.NBMMMMMMMMMMNMMM",
"NM.MM.MMMMM.MMMMMMMMMMMMMMMMMNNM.M.M.BMM.MMSSMMMMMMMNMMB.MMMMMMM",
"M.M..MMMM..M.M.MNSSMNMMNMMMMMMNMM..MN.M..M.NMM.NMMMN.MMNMMNMM.MM",
"NMM..MMNMM...MMMMSSMMMNMMMMMMNMMMN.M.MM.MMMMMM...MMM.M.MMNNMM.MM",
".MM.MMNBMM..MNMSS .SSMMMMNNNMM.M.MMM.MMM.NNNMMM.MMMMMMMMNBMMMM.M",
"M..MMMMMM....MMSS. SSMMNBMMMMMM.MMMNMMNN.MBMMMMMMMNBMMMMMMMMNNMM",
".MMMNMM..M.MMMMNMSSMMMMMMNMMNM.MMNNMMMBNMMMNMM.MMMMMMMMMMMM..MMM",
"MNMMMMMMMMMMMNMBNSSMMNNMMMMMMMM.MMMMMMMMNBM...NMNMNBNMN.MM.MM..M",
"MMMMMMMMNMNBMMNMM.MMMMMBMNNMMMMMMMMMMMMMMMMMN..MMMNMMMM.NMM.MM.M",
"MM.MMMBMMMMMMMMM...MMNNMMMMMNMMNMNMNNBMMBMMM.MMBMMMNM...MM.MMMMM",
".MMMMMMMMNMNMNBMMMMMMMMM.MM.MMMMMNMBNMMMMMNMMMMNNMMMMMMMMMMNMMM.",
"MMNMMMBNMMMMMBMMMNBMMNM......MNNMMMMMMNMMMBMMMMMMMMSNBMNMMMMMMMM",
"M.MNMMMM.M.MNNMMMMMMM.MMDDDDDDDDDDDDDDDDDMMM..MMBMS.SBNMMMNMNBNM",
"MM.M....MMMNMMMMMNNMMMDDFFFFFFFFFFFFFFFFFDD.MMMMMMMSMMMMMMMMMMMM",
"M.M..MMMMMBMMMNMNMMDDDFFFFFFFFFFFFFFFFFFFFFDDMNMNMMNMMMMMMMNNMMM",
"M.MM.MMNNMNMMMNMMMDFFFFFFFFFFFFFFFFFFFFFFFFFFDMMMMNMMMMNBMMMMM..",
".MMMMMMMMMMMMMMMDDFFFFFFFFFFFFFFFFFFFFFFFFFFFFDNBMMMNMMMMMMMMMMM",
"MMNMMMNNMMMMNMMDFFFFFFFFFCCCCCCCCCCCCCCFFFFFFFFDMNBMMMMMMNNBMMNM",
"MMMMMMNMMMMMMMDFFFFFFFCCCCCCCCCCCCCCCCCCCCFFFFFFDMNMNMMMMMMMMMNN",
"MMMNMNMMMMMMMDFFFFFFFCCCCCCCCCCCCCCCCCCCCCCCFFFFFDMMMMMMNNMMMMMM",
"MNSSMMMNMMMNNDFFFFFFCCCCCCCCCCCCCCCCCCCCCCCCCFFFFFDMMNMNMNMNNNMM",
"NNSSMBNMMMMMDFFFFFCCCCCCCCCCCCCCCCCCCCCCCCCCCCFFFFDMMMMMMMMMNMMM",
"SS .SSMMMNNMDFFFFCCCCCCCCCCCCCmmCCvCCCCCCCCCCCCFFFFDMMNMNMMMMMMM",
"SS. SSNMMMMDFFFFCCCCCCCCCCCzzVVmVvvCCCCCCCCCCCCFFFFDMNBMMMMMNBMM",
"BNSSMMMMMMMDFFFFCCCCCCCqhVVVzpp9hhVVVbnCCCCCCCCFFFFDMNMNNMMBBNNM",
"NMSSNMM.M.MDFFFCCCCChsVV5nVn8wmphmpVbbVVCCCCCCCFFFFDMMMMNMMMMMMM",
"MMMNMM.M. .DFFFCCCCCCsgtt9llttwwp9pmbnnVnV8CCCCFFFFD.BNMMMNMMNNN",
"MMMMMMM.M. DFFFCCCCCVV888tlttkhl==pe1eiazhsCCCCFFFFDNNMMMMMNMMNM",
"MNMMMNNMMM.DFFFCCCCVVnni8tt>txkm&w&@pcm9jzVCCCCFFFFDMMMMNMMMMMMN",
"MNMMMMMMM.ZAFFFCC0qVnnitflfi>4ft3g&O,whiianVCCCFFFAAZMNMNMMMNMMN",
"MMMMMM.M.MZAFFFCCVg7bift>*t3>O%3f4$X<8>tagVVhCFFFFAAZMMMMMNMMNMM",
"MNMMM..  .ZAAFFFCCV8g;>tf<lff483>%tt<+,>38hhhFFFFAAAZMMNMNNMMBNM",
"MMMM.MMMMMZAAFFFFFVaa&-dl>tdggzrX%t>loy,phszFFFFFAAAZMMMMMM.MMMM",
"MNMMM.MMMMZAAAFFFFFnn2%u8<%%::<<<htig#g6ssFFFFFFAAAAZNMMMMMMMMMM",
".MMMMMNMMMZAAAAFFFFFnaangg33trt>%<tll<<8nFFFFFAAAAAAZMMMMMMMM.NM",
"M.MMMMNNMBZAAAAAFFFFFFnllllllllyyyrrryllFFFFFAAAAAAAZMMNMNMM.MMB",
"NM...MMMMNZAAAAAAFFFFFFFFFFFFFFFFFFFFFFFFFFFAAAAAAAAZMMMMNMM.MMM",
"MM.MNNNBNMZAAAAAAAAFFFFFFFFFFFFFFFFFFFFFFFAAAAAAAAAAZM.MMMMMMMMM",
"MM.MBN..NNZAAAAAAAAAAFFFFFFFFFFFFFFFFFFFAAAAAAAAAAAAZMMMNMMNNMMN",
"NBMM.NMNMMZAAAAAAAAAAAAFFFFFFFFFFFFFFFAAAAAAAAAAAAAZ.M..M.MMMMMM",
"MBMMMMNBMM.ZAAAAAAAAAAAAAAAAAAAAAAAAAAAAAAAAAAAAAAAZMMMMNMMMMMMM",
"MMMMMNMN.SS ZAAAAAAAAAAAAAAAAAAAAAAAAAAAAAAAAAAAAAAZMMNBMNMMNNMM",
"MNMMMMMMMSS.ZAAAAAAAAAAAAAAAAAAAAAAAAAAAAAAAAAAAAAZMMM.N.MMMMMMM",
"MBNMMMMMNMMSSZAAAAAAAAAAAAAAAAAAAAAAAAAAAAAAAAAAAZSMMMMMNBMMMMMM",
"MN..M.NMM.MSSMZAAAAAAAAAAAAAAAAAAAAAAAAAAAAAAAAAZ .SSMMMM..MMMNM",
".MMMMNBMMMNMMNMZZAAAAAAAAAAAAAAAAAAAAAAAAAAAAAZZS. SSNMMMMMMN..M",
"MMMMMMMNMMMMMMMNMZAAAAAAAAAAAAAAAAAAAAAAAAAAZZMMMSSMMMMMMMMMMMMM",
"MNMMMMMMMMNMMMNBMMZZAAAAAAAAAAAAAAAAAAAAAAAZ.MNMMSSM..MMMNB.NMMM",
"BBMMBMMMMNMNMNMMNNMMZZZZZZZZZZZZZZZZZZZZZZZMMMMMM.MMM.MMMMM.MM.N",
"NNMMNMMMMMMMMMMNMNBM.M.NBMNBNMBMMMNBMMNNM.MMMMBMNMMMMMM.MM.M.M..",
"M..NBMMMNMMMMMMMMMM..MMM.MMMMNNM.MMMMM.MMMMMNMNMMMM.MMMMM.MMMM..",
"MMMNMMNMMNMNNBMMMMMM.MMMMMMMMMMMM.MMMM.MMMMMMMMMNMM.MNNMMMNMMM..",
"MMMMMMMMMMMM.N..M..MM.M..MNMMNMNMMM..MM.MMMMNBMNMNMMNMM.MMMMNMNM",
"..MMNMMMNNMMMMMMMMMM.MM.MMMMMMMMNM.NM.M.NMMMMMMMMMMMNM.MMMMBNMMM",
"NMMNMMMMMMMMMMNMM.MNMMMMMMMMMMMM.NBNMMMMMMMM..M...M.MMMNMMMMMMMM",
"MMMBNMNMMBMMMNMMMMMNMMM.N..MMMMMMMNMMMNMMBNMMM..MMMM..M.MM.MMNBM",
".NMMNMMMNMNMMMMMMMMMM.MM..MNNMMM..MMMMMMMMMMM.MMMNNMMMMM.MMNMMMM",
"MM.M.MNMMMMMMMMM.MMMMM.MMNMMMMMM.MM..MMMNMMBNM.MMMM.M.MNMMMMSM. ",
"   .MMMMMMMMMMMMMMMMMN..MMMMMMMMM.MMMMMMMNMNMMMM.M.MMMMMMM.S.SM.",
". M..NBMMNMMMMBMMNMMMMMMSMMMMMMMMMMMNBMMMMMMMMNNMN.M.NBMMNMMS.MM",
"MMM.MMMMMMMMMMMMNBMMMMNS.SNMMNMM.MMMMMMMMMMSSMMMMMMMMNM.MMMMMM.M",
"..MSMNMMMMMBM.MMM.MMMMMMSMMMMMMMMMNMMMMMNMBSSM.MMMNMMMM.M.NMMMNB",
"M.S.SNMMMMMMMMM..MMNMMMM..MMMNMMMNBMNBMMMSS .SSM.MMMNBMM.MMMM.MB"
};
