/* XPM */
static char *a04cf9b36bf542f3e2452fd92009a0cdEwqwvwMPdnwJCj2C[] = {
/* columns rows colors chars-per-pixel */
"64 64 12 1 ",
"  c black",
". c #303430",
"X c #5F4D1B",
"o c #487420",
"O c #655E70",
"+ c #359525",
"@ c #58BA32",
"# c #7CD328",
"$ c #797D89",
"% c #FFFCA2",
"& c #ACBFC6",
"* c #D6E4EF",
/* pixels */
"+@+%o++++++@++o+oo+++o++o+@++++@+++o+++++%%oX%%+++++++++@#++++++",
"@+++o++@+o+++@++o+@+o+o++@@++++@+++++#@++++%%++o@#++++++++++@+++",
"@+o++o+++++o+++++++++++++++++@@+o+o+o#++o++%%+++++++@++#o+++++++",
"+o+oo++++oo+o+o+@%%+@++@++++++@++oo+@o+oo+o@++o@+++@o++@++@++o++",
"@++oo++@++ooo++++%%+++@++++++@+++@o+o++o++++++ooo+++o+o++@@++o++",
"o++o++@#++oo+@+%%Xo%%++++@@@++o+o+++o+++o@@@+++o++++++++@#++++o+",
"+oo++++++oooo++%%oX%%++@#++++++o+++@++@@o+#+++++++@#++++++++@@++",
"o+++@++oo+o++++@+%%++++++@++@+o++@@+++#@+++@++o++++++++++++oo+++",
"+@+++++++++++@+#@%%++@@++++++++o++++++++@#+ooo@+@+@#@+@o++o++oo+",
"++++++++@+@#++@++o+++++#+@@+++++++++++++++++@oo+++@++++o@++o++o+",
"++o+++#+++++++++ooo++@@+++++@++@+@+@@#++#+++o++#+++@+ooo++o+++++",
"o++++++++@+@+@#+++++++++o++o+++++@+#@+++++@++++@@++++++++++@+++o",
"++@+++#@+++++#+++@#++@+oooooo+@@++++++@+++#++++++++%@#+@++++++++",
"+o+@++++o+o+@@+++++++o+++o++@++++++@#@++++++oo++#+%o%#@+++@+@#@+",
"++o+oooo+++@+++++@@+++++o+++++++++++++++o++o+++++++%++++++++++++",
"+o+oo+++++#+++@+@+++#++@++++++@++++++@#++oo+++@+@++@+++++++@@+++",
"+o++o++@@+@+++@+++++#@+@+++@++++@++@#+++++o+oo++++@++++@#+++++oo",
"o++++++++++++++++++++++++o+++o++@+++++o++o@o+@+@#+++@+++++++++++",
"++@+++@@++++@++++%o+o+o+++++oooo++@#++++@++++++++@#++++++@@#++@+",
"++++++@++++++++@%o%++oo+@+@++o+o+++o+o+++@#oo@#+++@+@+++++++++@@",
"+++@+@+++++++++++%oo++++#+@+oo+o+++#o+@oo+@@o+@+@+++++++@@++++++",
"+@%%+++@+++@@++oo+o+@o++o++++++o+++@+@+++oXXo+++++@++@+@+@+@@@++",
"@@%%+#@+++++@o++o+++++++++#@+@++++++++#+@+ooX+@+o@@+++++++++@+++",
"%%Xo%%+++@@+++++++@@++++oo+++@@+++@#++@++++o@o++++++++@+@+++++++",
"%%oX%%@++++++++o++@#+@++.+o++++++.++++o+%@oo##@++@+@+@#+++++@#++",
"#@%%++++++++@++++@+++++.*.++o++o.*.o+oo%o%@+++@#@++@+@+@@++##@@+",
"@+%%@++o+o++++o++++++++.&&......&&.o+++o%++#@ooo++++++++@+++++++",
"+++@++o+oXooXo++++@#++#.O$&&&&&&$O.o#+++@+++@#@@o@++o#@+++@++@@@",
"+++++++o+oX+o+o+++o+++o.$&******&$.+++o++#+@+@o#oo@+@@+++++@++@+",
"+@+++@@+++oo+o+++@+++++.$**&$****$.+@oo+++++++++++++++++@++++++@",
"+@+++++++o+oo++@+oo+@+..$&*$*O**&$..oo+++@++++++@@++@+@+@+++@++@",
"++++++o+o+++o+o++++@#++ .$&$*O&&$. ++@+@++@@+@##++++@+++++@++@++",
"+@+++ooXXo+ooo@++@@++@..$$*$**O&$$..+++#@o++@++++++@+++@+@@++#@+",
"++++o+++++ooo++++++++++ &**$**O*&& ##+++ooo+++@@++o+@++++++o++++",
"+@+++o+++++++@@+++@@++.$&**O**O***&.+++++#++++++@+++@@++++++++++",
"o+++++@+++++++@#@@++@#.&***O**O***&.+++++++++++++++++++++++++o@+",
"+o++++@@+#@@+++@@+@@++.&&**O**$**&$.@++++@+#o%@+o++++++@+@++o++#",
"@+ooo++++@#+@+@@#@#+++.$&**O&*O**&$.++@++++@%o%+++o++++++@++o+++",
"++o+@@@#@++++++++#++++ $&**$$*O**$$ +@#@++@++%+#++#@++o+++++++++",
"++o+#@oo@@oooo++@+#@o+ O&&*&O&O*&$O +#@@+@+++++++++o++++@++@@++@",
"@#++o@+@+++%%o++++@++@ O&&&&O&O&$$O +++++++@+@++++++o+oo+o++++++",
"+#++++@#++o%%+XXo+++o++.$&&$$ O$$O.+#@++@+++++ooo+++++++@+++++++",
"+++++@+@o%%Xo%%ooo++ooo+ $&&$ .$O ++#+@Xo+@+@o@+++@@++@#+@++@@++",
"+@+++++++%%oX%%++Xoo++++ O**O .O ++++@#ooXo@++#++%%+++o@o+++++++",
"+#@+++++@++%%++ooo++o++@+ && +.. +++++++@oo+@+++o%%+++++@#++++++",
"+@oo+o@++o+%%+@+oo++@++++ OO o  +@++o++++@+++++%%Xo%%++++oo+++@+",
"o++++@#+++@++@++o+++o+++@#  .+++++++@++++++o+++%%oX%%@++++++@oo+",
"+++++++@+++++++@+++++++o++++++@@++++++@++@+o+++++%%+++++++++++++",
"+@++++++++@+++@#+++o+oo+++++@++++++o++++++++o+@++%%+oo+++@#o@+++",
"##++#++++@+@+@++@@+++o+@++++++++++@@#+++++o++++++o+++o+++++o++o@",
"@@++@++++++++++@+@#+o+o@#+@#@+#+++@#++@@+o++++#+@++++++o++o+o+oo",
"+oo@#+++@++++++++++oo+++o++++@@+o+++++o+++++@+@++++o+++++o++++oo",
"+++@++@++@+@@#++++++o++++++++++++o++++o+++++++++@++o+@@+++@+++oo",
"++++++++++++o@oo+oo++o+oo+@++@+@+++oo++o++++@#+@+@++@++o++++@+@+",
"oo++@+++@@++++++++++o++o++++++++@+o@+o+o@+++++++++++@+o++++#@+++",
"@++@++++++++++@++o+@++++++++++++o@#@++++++++oo+ooo+o+++@++++++++",
"+++#@+@++#+++@+++++@+++o@oo+++++++@+++@++#@+++oo++++oo+o++o++@#+",
"o@++@+++@+@++++++++++o++oo+@@+++oo+++++++++++o+++@@+++++o++@++++",
"++o+o+@+++++++++o+++++o++@++++++o++oo+++@++#@+o++++o+o+@++++%+oX",
"XXXo+++++++++++++++++@oo+++++++++o+++++++@+@++++o+o+++++++o%o%+o",
"oX+oo@#++@++++#++@++++++%+++++++++++@#++++++++@@+@o+o@#++@++%o++",
"+++o++++++++++++@#++++@%o%@++@++o++++++++++%%++++++++@+o++++++o+",
"oo+%+@+++++#+o+++o++++++%+++++++++@+++++@+#%%+o+++@++++o+o@+++@#",
"+o%o%@+++++++++oo++@++++oo+++@+++@#+@#+++%%Xo%%+o+++@#++o++++o+#"
};
