/* XPM */
static char *e3251cc13f9b4034c071d7d2f79a60c1kFkgqrfsy7bfaMcE[] = {
/* columns rows colors chars-per-pixel */
"64 64 16 1 ",
"  c black",
". c #303430",
"X c #5F4D1B",
"o c #487420",
"O c #10436E",
"+ c #655E70",
"@ c #359525",
"# c #58BA32",
"$ c #7CD328",
"% c #746C81",
"& c #797D89",
"* c #8A7890",
"= c #7698BB",
"- c #FFFCA2",
"; c #ACBFC6",
": c #D6E4EF",
/* pixels */
"@#@-o@@@@@@#@@o@oo@@@o@@o@#@@@@#@@@o@@@@@--oX--@@@@@@@@@#$@@@@@@",
"#@@@o@@#@o@@@#@@o@#@o@o@@##@@@@#@@@@@$#@@@@--@@o#$@@@@@@@@@@#@@@",
"#@o@@o@@@@@o@@@@@@@@@@@@@@@@@##@o@o@o$@@o@@--@@@@@@@#@@$o@@@@@@@",
"@o@oo@@@@oo@o@o@#--@#@@#@@@@@@#@@oo@#o@oo@o#@@o#@@@#o@@#@@#@@o@@",
"#@@oo@@#@@ooo@@@@--@@@#@@@@@@#@@@#o@o@@o@@@@@@ooo@@@o@o@@##@@o@@",
"o@@o@@#$@@oo@#@--Xo--@@@@###@@o@o@@@o@@@o###@@@o@@@@@@@@#$@@@@o@",
"@oo@@@@@@oooo@@--oX--@@#$@@@@@@o@@@#@@##o@$@@@@@@@#$@@@@@@@@##@@",
"o@@@#@@oo@o@@@@#@--@@@@@@#@@#@o@@##@@@$#@@@#@@o@@@@@@@@@@@@oo@@@",
"@#@@@@@@@@@@@#@$#--@@##@@@@@@@@o@@@@@@@@#$@ooo#@#@#$#@#o@@o@@oo@",
"@@@@@@@@#@#$@@#@@o@@@@@$@##@@@@@@@@@@@@@@@@@#oo@@@#@@@@o#@@o@@o@",
"@@o@@@$@@@@@@@@@ooo@@##@@@@@#@@#@#@##$@@$@@@o@@$@@@#@ooo@@o@@@@@",
"o@@@@@@@@#@#@#$@@@@@@@@@o@@o@@@@@#@$#@@@@@#@@@@##@@@@@@@@@@#@@@o",
"@@#@@@$#@@@@@$@@@#$@@#@oooooo@##@@@@@@#@@@$@@@@@@@@-#$@#@@@@@@@@",
"@o@#@@@@o@o@##@@@@@@@o@@@o@@#@@@@@@#$#@@@@@@oo@@$@-o-$#@@@#@#$#@",
"@@o@oooo@@@#@@@@@##@@@@@o@@@@@@@@@@@@@@@o@@o@@@@@@@-@@@@@@@@@@@@",
"@o@oo@@@@@$@@@#@#@@@$@@#@@@@@@#@@@@@@#$@@oo@@@#@#@@#@@@@@@@##@@@",
"@o@@o@@##@#@@@#@@@@@$#@#@@@#..@@#@@#$@@@@@o@oo@@@@#@@@@#$@@@@@oo",
"o@@@@@@@@@@@@@@@@@@@@@@@@o@.&&.@#@@@@@o@@o#o@#@#$@@@#@@@@@@@@@@@",
"@@#@@@##@@@@#@@@@-o@o@o@@@@.:;.o@@#$@@@@#@@@@@@@@#$@@@@@@##$@@#@",
"@@@@@@#@@@@@@@@#-o-@@oo@#@#.:;.o@@@o@o@@@#$oo#$@@@#@#@@@@@@@@@##",
"@@@#@#@@@@@@@@@@@-oo@@@@$@#.:;.o@@@$o@#oo@##o@#@#@@@@@@@##@@@@@@",
"@#--@@@#@@@##@@oo@o@#o@@o@@.:;.o@@@#@#@@@oXXo@@@@@#@@#@#@#@###@@",
"##--@$#@@@@@#o@@o@@@@@@@@@$.;;.@@@@@@@$@#@ooX@#@o##@@@@@@@@@#@@@",
"--Xo--@@@##@@@@@@@##@@@@oo@.;;.@@@#$@@#@@@@o#o@@@@@@@@#@#@@@@@@@",
"--oX--#@@@@@@@@o@@#$@#@@@@..&&..@@@@@@o@-#oo$$#@@#@#@#$@@@@@#$@@",
"$#--@@@@@@@@#@@@@#@@@@@@#.&;;;;&.o@o@oo-o-#@@@#$#@@#@#@##@@$$##@",
"#@--#@@o@o@@@@o@@@@@@@@#.&::::::&.oo@@@o-@@$#ooo@@@@@@@@#@@@@@@@",
"@@@#@@o@oXooXo@@@@#$@@$.;:+::::&:;.o$@@@#@@@#$##o#@@o$#@@@#@@###",
"@@@@@@@o@oX@o@o@@@o@@@o.%&:+;;+:&%.@@@o@@$@#@#o$oo#@##@@@@@#@@#@",
"@#@@@##@@@oo@o@@@#@@@@@.*%&::::&%*.@#oo@@@@@@@@@@@@@@@@@#@@@@@@#",
"@#@@@@@@@o@oo@@#@oo@#@#.*;;::::;;*.@oo@@@#@@@@@@##@@#@#@#@@@#@@#",
"@@@@@@o@o@@@o@o@@@@#$@@.;::::::::;.@@#@#@@##@#$$@@@@#@@@@@#@@#@@",
"@#@@@ooXXo@ooo#@@##@@##.::::::::::.@@@@$#o@@#@@@@@@#@@@#@##@@$#@",
"@@@@o@@@@@ooo@@@@@@@@@@.:OO::::OO:.$$@@@ooo@@@##@@o@#@@@@@@o@@@@",
"@#@@@o@@@@@@@##@@@##@@..:=O::::O=:..@@@@@$@@@@@@#@@@##@@@@@@@@@@",
"o@@@@@#@@@@@@@#$##@@#$#+;::;..;::;+o@@@@@@@@@@@@@@@@@@@@@@@@@o#@",
"@o@@@@##@$##@@@##@##@@..+;::::::;+..#@@@@#@$o-#@o@@@@@@#@#@@o@@$",
"#@ooo@@@@#$@#@##$#$@@@@+&++;;;;+++.@@@#@@@@#-o-@@@o@@@@@@#@@o@@@",
"@@o@###$#@@@@@@@@$@@@@@.&;&++++&; @@@#$#@@#@@-@$@@$#@@o@@@@@@@@@",
"@@o@$#oo##oooo@@#@$#o@@@ ;::::;;+ @o@$##@#@@@@@@@@@o@@@@#@@##@@#",
"#$@@o#@#@@@--o@@@@#@@#@@ .;;.  . oo#@@@@@@@#@#@@@@@@o@oo@o@@@@@@",
"@$@@@@#$@@o--@XXo@@@o@@oo &:&.  @#@@$#@@#@@@@@ooo@@@@@@@#@@@@@@@",
"@@@@@#@#o--Xo--ooo@@ooo@@@ :;.@@@@@@$@#Xo@#@#o#@@@##@@#$@#@@##@@",
"@#@@@@@@@--oX--@@Xoo@@@@@@o  @@o@@@@@#$ooXo#@@$@@--@@@o#o@@@@@@@",
"@$#@@@@@#@@--@@ooo@@o@@#@o@@@@@@@@@@@@@@#oo@#@@@o--@@@@@#$@@@@@@",
"@#oo@o#@@o@--@#@oo@@#@@@@@@@oo@@@#@@o@@@@#@@@@@--Xo--@@@@oo@@@#@",
"o@@@@#$@@@#@@#@@o@@@o@@@#$@#@@@@@@@@#@@@@@@o@@@--oX--#@@@@@@#oo@",
"@@@@@@@#@@@@@@@#@@@@@@@o@@@@@@##@@@@@@#@@#@o@@@@@--@@@@@@@@@@@@@",
"@#@@@@@@@@#@@@#$@@@o@oo@@@@@#@@@@@@o@@@@@@@@o@#@@--@oo@@@#$o#@@@",
"$$@@$@@@@#@#@#@@##@@@o@#@@@@@@@@@@##$@@@@@o@@@@@@o@@@o@@@@@o@@o#",
"##@@#@@@@@@@@@@#@#$@o@o#$@#$#@$@@@#$@@##@o@@@@$@#@@@@@@o@@o@o@oo",
"@oo#$@@@#@@@@@@@@@@oo@@@o@@@@##@o@@@@@o@@@@@#@#@@@@o@@@@@o@@@@oo",
"@@@#@@#@@#@##$@@@@@@o@@@@@@@@@@@@o@@@@o@@@@@@@@@#@@o@##@@@#@@@oo",
"@@@@@@@@@@@@o#oo@oo@@o@oo@#@@#@#@@@oo@@o@@@@#$@#@#@@#@@o@@@@#@#@",
"oo@@#@@@##@@@@@@@@@@o@@o@@@@@@@@#@o#@o@o#@@@@@@@@@@@#@o@@@@$#@@@",
"#@@#@@@@@@@@@@#@@o@#@@@@@@@@@@@@o#$#@@@@@@@@oo@ooo@o@@@#@@@@@@@@",
"@@@$#@#@@$@@@#@@@@@#@@@o#oo@@@@@@@#@@@#@@$#@@@oo@@@@oo@o@@o@@#$@",
"o#@@#@@@#@#@@@@@@@@@@o@@oo@##@@@oo@@@@@@@@@@@o@@@##@@@@@o@@#@@@@",
"@@o@o@#@@@@@@@@@o@@@@@o@@#@@@@@@o@@oo@@@#@@$#@o@@@@o@o@#@@@@-@oX",
"XXXo@@@@@@@@@@@@@@@@@#oo@@@@@@@@@o@@@@@@@#@#@@@@o@o@@@@@@@o-o-@o",
"oX@oo#$@@#@@@@$@@#@@@@@@-@@@@@@@@@@@#$@@@@@@@@##@#o@o#$@@#@@-o@@",
"@@@o@@@@@@@@@@@@#$@@@@#-o-#@@#@@o@@@@@@@@@@--@@@@@@@@#@o@@@@@@o@",
"oo@-@#@@@@@$@o@@@o@@@@@@-@@@@@@@@@#@@@@@#@$--@o@@@#@@@@o@o#@@@#$",
"@o-o-#@@@@@@@@@oo@@#@@@@oo@@@#@@@#$@#$@@@--Xo--@o@@@#$@@o@@@@o@$"
};
