/* XPM */
static char *out[] = {
/* columns rows colors chars-per-pixel */
"64 64 168 2 ",
"   c #040202",
".  c #0D0300",
"X  c #0E0805",
"o  c #0B0A0A",
"O  c #100400",
"+  c #170A00",
"@  c #101312",
"#  c #462F1A",
"$  c #56381F",
"%  c #5A3A1C",
"&  c #493625",
"*  c #5E3D25",
"=  c #563C28",
"-  c #5E3E2B",
";  c #5B3E31",
":  c #633E24",
">  c #613F2B",
",  c #5F4D1B",
"<  c #66401D",
"1  c #5E4025",
"2  c #5E412B",
"3  c #5C4333",
"4  c #634226",
"5  c #684627",
"6  c #62412A",
"7  c #6C462C",
"8  c #6B492D",
"9  c #714C2E",
"0  c #7A542D",
"q  c #654334",
"w  c #6B4630",
"e  c #6E4A32",
"r  c #6B4F3C",
"t  c #724E32",
"y  c #6F5239",
"u  c #745234",
"i  c #7C5535",
"p  c #725935",
"a  c #7F5A36",
"s  c #75553A",
"d  c #7B563A",
"f  c #7C5A3D",
"g  c #487420",
"h  c #59524A",
"j  c #624F45",
"k  c #6A4F41",
"l  c #6D5542",
"z  c #64574C",
"x  c #765B42",
"c  c #7A5B41",
"v  c #705E4D",
"b  c #7B5C48",
"n  c #725B53",
"m  c #7B6D5A",
"M  c #87582D",
"N  c #845735",
"B  c #895634",
"V  c #845936",
"C  c #895933",
"Z  c #83563A",
"A  c #835A3A",
"S  c #8A5C3B",
"D  c #87613C",
"F  c #8C613E",
"G  c #91643D",
"H  c #825E45",
"J  c #895F41",
"K  c #836243",
"L  c #8D6343",
"P  c #896949",
"I  c #8D6A48",
"U  c #916645",
"Y  c #916A45",
"T  c #926649",
"R  c #926A49",
"E  c #94714B",
"W  c #99714D",
"Q  c #846C55",
"!  c #8C735C",
"~  c #8F795F",
"^  c #957258",
"/  c #90785C",
"(  c #9E7C5D",
")  c #A17651",
"_  c #A47B56",
"`  c #A57D5A",
"'  c #AA7E5B",
"]  c #8E7561",
"[  c #8E7964",
"{  c #86726A",
"}  c #927962",
"|  c #987B60",
" . c #359525",
".. c #58BA32",
"X. c #7CD328",
"o. c #AC8257",
"O. c #A6825D",
"+. c #AD835D",
"@. c #9E8A6E",
"#. c #94897B",
"$. c #9C8C7C",
"%. c #A68463",
"&. c #AC8462",
"*. c #AC8967",
"=. c #A3866B",
"-. c #A98769",
";. c #A6896B",
":. c #AE8A6A",
">. c #B18662",
",. c #B18965",
"<. c #B48E6A",
"1. c #B4906E",
"2. c #A38C73",
"3. c #A88B77",
"4. c #A18E7A",
"5. c #B38F72",
"6. c #A5917C",
"7. c #AB957A",
"8. c #B69577",
"9. c #BE9974",
"0. c #BD9D79",
"q. c #AB9889",
"w. c #B29C86",
"e. c #B9A28C",
"r. c #B1A596",
"t. c #BEAB97",
"y. c #BEAC9A",
"u. c #D5B28D",
"i. c #C1AB97",
"p. c #C4AE9B",
"a. c #C2B19E",
"s. c #C8B89F",
"d. c #DEBA95",
"f. c #D7BA9A",
"g. c #D8BA98",
"h. c #E1BE9B",
"j. c #C4B4A3",
"k. c #CAB9A5",
"l. c #D0B7A4",
"z. c #D1BFAC",
"x. c #C5BCB1",
"c. c #DEC19E",
"v. c #E4C19B",
"b. c #EBC89E",
"n. c #DAC4AC",
"m. c #D7C9B6",
"M. c #E4C3A4",
"N. c #E9C2A0",
"B. c #E4C8A5",
"V. c #ECCAA3",
"C. c #E7C8AB",
"Z. c #EBCDA9",
"A. c #F1CFAA",
"S. c #ECD0A7",
"D. c #EED2AB",
"F. c #F3D4AE",
"G. c #F9D6AD",
"H. c #EBCFB0",
"J. c #ECD4B3",
"K. c #E7D4BB",
"L. c #F4D5B2",
"P. c #F9D8B4",
"I. c #FFFCA2",
"U. c #FEE2BB",
"Y. c #D9CDC2",
"T. c #DAD1C8",
"R. c #F0E4CC",
"E. c #F4E7D3",
/* pixels */
" ... .I.g  . . . . . ... . .g  .g g  . . .g  . .g  ... . . . ... . . .g  . . . . .I.I.g , I.I. . . . . . . . . ...X. . . . . . .",
".. . . .g  . ... .g  . . ... . .g  ... .g  .g  . ..... . . . ... . . . . .X... . . . .I.I. . .g ..X. . . . . . . . . . ... . . .",
".. .g  . .g  . . . . .g  . . . . . . . . . . . . . . . . ..... .g  .g  .g X. . .g  . .I.I. . . . . . . ... . .X.g  . . . . . . .",
" .g  .g g  . . . .g g  .g  .g  ...I.I. ... . ... . . . . . ... . .g g  ...g  .g g  .g .. . .g .. . . ...g  . ... . ... . .g  . .",
".. . .g g  . ... . .g g g  . . . .I.I. . . ... . . . . . ... . . ...g  .g  . .g  . . . . . .g g g  . . .g  .g  . ..... . .g  . .",
"g  . .g  . ...X. . .g g  ... .I.I., g I.I. . . . ....... . .g  .g  . . .g  . . .g ...... . . .g  . . . . . . . ...X. . . . .g  .",
" .g g  . . . . . .g g g g  . .I.I.g 1 I.I. . ...X. . . . . . .g  . . ... . .....g  .X. . . . . . . ...X. . . . . . . . ..... . .",
"g  . . ... . .g g  .g  . . . ... .I.I. . . . . . ... . ... .g  . ..... . . .X... . . ... . .g  . . . . . . . . . . . .g g  . . .",
" ... . . . . . . . . . . ... .X...I.I. . ..... . . . . . . . .g  . . . . . . . ...X. .g g g .. ... ...X... ...g  . .g  . .g g  .",
" . . . . . . . ... ...X. . ... . .g  . . . . .X. ..... . . . . . . . . . . . . . . . . ...g g  . . ... . . . .g .. . .g  . .g  .",
" . .g  . . .X. . . . . . . . . .g g g  . ..... . . . . ... . ... ... .....X. . .X. . . .g  . .X. . . ... .g g g  . .g  . . . . .",
"g  . . . . . . . ... ... ...l f } =.2.=.2.=.=.H c f x c x c  . . ... .X... . . . . ... . . . ..... . . . . . . . . . ... . . .g ",
" . ... . . .X... . . . . .X.p C ) &.' >.<.*.+.F B B C C C S .... . . . . . ... . . .X. . . . . . . . .I...X. ... . . . . . . . .",
" .g  ... . . . .g  .g  .....z.V.0.%.&.-.1.Z.Z.E V N V V A A  . . . . ...X... . . . . . .g g  . .X. .I.g I.X... . . ... ...X... .",
" . .g  .g g g g  . . ... . .K.G.0.%.&.+.+.L.L.( A A V V V V  . . . . . . . . . .g  . .g  . . . . . . .I. . . . . . . . . . . . .",
" .g  .g g  . . . . .X. . . .m.n.0.+.&.+.O.m.Y.@.Y L A V A S .. . . . . . ...X. . .g g  . . ... ... . ... . . . . . . ..... . . .",
" .g  . .g  . ..... ... . . .@   { -.&.+.;.+ X k.F.N.A V V A  . ... . ...X. . . . . .g  .g g  . . . ... . . . ...X. . . . . .g g ",
"g  . . . . . . . . . . . . .X . m +.+.&.;.O O s.L.M.I 0 V A  . ... . . . . .g  . .g ..g  ... ...X. . . ... . . . . . . . . . . .",
" . ... . . ..... . .o o o o q.-.N.G.G.F.L.;.3.B.F.L.P.U.a A g g  . ...X. . . . ... . . . . . . . ...X. . . . . . .....X. . ... .",
" . . . . . ... . . .        @.' v.J.L.F.G.+.%.b.F.J.L.F.I A  .g  . . .g  .g  . . ...X.g g ..X. . . ... ... . . . . . . . . .....",
" . . ... ... . . . .r r k r C.B.S.D.F.F.F.B.Z.G.L.d.Y ( d s  .g  . . .X.g  ...#.Q Q Q m g  ... ... . . . . . . ..... . . . . . .",
" ...I.I. . . ... . .V N N N F.F.F.L.F.J.F.L.S.F.F.h.A i d 3  .g  . . ... ... .! V C C y g  . . . . ... . ... ... ... ....... . .",
"....I.I. .X... . . .E W A B d.d.F.F.F.F.F.F.F.F.F.v.d d > 2  . . . . . . . .X.$.| ^ N i ,  ... .g .... . . . . . . . . ... . . .",
"I.I., g I.I. . . ...F.G.A N V V d.F.F.F.F.F.F.F.F.g.6 1 3 * A A w. ...X. . ... . . .V C A K  . . . . . . . ... ... . . . . . . .",
"I.I.g , I.I... . . .F.G.Z i V V u.F.L.J.F.F.F.F.L.f.2 4 4 < V A e. . . . . .g  .I...d p H A .. . ... ... ...X. . . . . ...X. . .",
"X...I.I. . . . . . .F.G.,.>.&.&.h.D.F.F.F.F.D.p 4 4 2 4 c A V C V K Q g  .g g I.g I... .f B q q n  . ... ... ..... . .X.X..... .",
".. .I.I... . .g  .g D.L.:.&.+.&.v.F.F.D.D.F.L.p 6 > 6 6 V V V V V M p g  . . .g I. . .X.c f 7 6 n  . . . . . . ... . . . . . . .",
" . . ... . .g  .g , F.G.&.>.&.&.v.D.c.% % $ % 2 q 7 f Z V V V A f A V l y e y y u m  . ...X.3 6 v .. . .g X... . . ... . .......",
" . . . . . . .g  .g L.G.-.&.%.+.v.F.n.5 4 4 4 8 > 5 N A V V V B N A C C C C M C B Q  ... ...j : n g .. ..... . . . . ... . ... .",
" ... . . ..... . . .E.R.z.l.%.+.m.E.K.D D e 8 f H J S A V V V A A A A V V V V V S P p.j.a.a.3 = z  . . . . . . ... . . . . . ...",
" ... . . . . . . .g  .g g  .@.%. .g g %.%.V A ` +._ B N A A N V V V V V A V V F C V V V C a & & h .. . ... ... ... . . ... . ...",
" . . . . . .g  .g  . . .g  .6.%. . . .&.>.V V _ &.' Z A V V V N A f d N V A U U L V f V C V = # z  . . ... . . . . ... . ... . .",
" ... . . .g g , , g  .g g g .. . .....%.+.%.&.&.&.` A A N A A N 9 1 > Z V V V U R J Z V A A V V [  . ... . . ... ..... . .X... .",
" . . . .g  . . . . .g g g  . . . . . .-.>.&.>.&.&.' A V A V N A u 2 3 V V V N V V L L Z f A V f [  .g  ... . . . . . .g  . . . .",
" ... . . .g  . . . . . . ..... . . ...%.&.&.>.+.&.' C A C V A V t 6 6 N C V V V N S T J N V V V f c v  ..... . . . . . . . . . .",
"g  . . . . ... . . . . . . ...X..... .:.&.' O.&.&.` A V Z A B A 9 6 5 N A V Z A A A L R D a V C N V p  . . . . . . . . . .g .. .",
" .g  . . . ..... .X..... . . ..... ...T Y &.&.D u u 7 7 w 7 7 7 6 6 6 e 7 7 w 7 8 8 e t I A Z Z V M f  . . . ... ... . .g  . .X.",
".. .g g g  . . . ...X. ... .....X...X.c V *.%.8 * 4 > > > > 6 6 6 > 6 2 6 6 6 6 6 * 6 6 K T L Z V C s  . . . . . ... . .g  . . .",
" . .g  .......X... . . . . . . . .X. .L F _ ` t - 6 u c e t * * 6 6 * 6 4 > 6 6 6 6 6 > c Z T S f D D .. . .g  . . . . . . . . .",
" . .g  .X...g g ....g g g g  . ... .X.%.>.A A 5 2 x A.P.%.-.* : 6 2 4 4 6 6 4 6 2 6 6 6 6 6 H T Y ' =.g  . . . ... . ..... . ...",
"..X. . .g .. ... . . .I.I.g  . . . ...-.+.a V 6 2 c G.G.O.%., * * 3 ; - ; - * 4 1 6 4 4 : : i S G +.=. .g  .g g  .g  . . . . . .",
" .X. . . . ...X. . .g I.I. ., , g  . . .+.*.,.u 1 c L.F.P.L.%.-.l... . .X.=.%.%.-.( V i *.&.&.>.+.o.=. . . . . ... . . . . . . .",
" . . . . ... ...g I.I., g I.I.g g g  . .+.&.%.t 7 b L.F.L.D.O.+.k. . . .X.=.:.%.:.` A f &.%.*.%.+.+.=... . ...X. ... . ..... . .",
" ... . . . . . . .I.I.g , I.I. . ., g g  .%.%.A u J 9.9.F.F.O.&.k. . . . ...X.8.&.` V V F F ` &.&.+.=. . . .g ..g  . . . . . . .",
" .X... . . . . ... . .I.I. . .g g g  . .g ;.>.L N W 5.:.F.G.O.&.k. . . . . . .w.>.` C S N V ` +.-.+.;. . . . . ...X. . . . . . .",
" ...g g  .g .. . .g  .I.I. ... .g g  . ...( ' G V H q.w.H.V.+.&.k... . .g  . .q.O.) C d b x ` +.+.+.=.I.I. . . . .g g  . . ... .",
"g  . . . ...X. . . ... . ... . .g  . . .g c A N V [  ...2.<.>.&.k. . . ... . .[ V B N y  . .q.O.+.+.=.I.I... . . . . . ...g g  .",
" . . . . . . ... . . . . . . ... . . . . .c V A N [  . .<.<.,.%.j. . . . . ...[ V A V s  . .7.+.+.+.=. . . . . . . . . . . . . .",
" ... . . . . . . . ... . . ...X. . . .g  .f V V V ]  . .:.<.1.,.j. . .g  . . .} V V V s g  .7.+.&.+.-. .g g  . . ...X.g .. . . .",
"X.X. . .X. . . . ... ... ... . ..... . . .f V V V /  . .-.>.*.<.k. .....X. . .} V f C s  . .7.+.>.+.=. . .g  . . . . .g  . .g ..",
".... . ... . . . . . . . . . ... ...X. .g c A V V ] ..X.-.&.&.%.n. ...X. . ...} C V V s  . .7.+.+.+.=. . . . .g  . .g  .g  .g g ",
" .g g ..X. . . ... . . . . . . . . . .g g s V S A ]  . .=.+.>.%.k. . . . . .g ~ a V V u .. .7.*.+.*.=.g  . . . . .g  . . . .g g ",
" . . ... . ... . ... .....X. . . . . . .g $.6.4.4.r. . .j.y.t.j.T.g  . . . .g r.$.$.2.$. . .x.y.t.i.y.g  ..... . . ... . . .g g ",
" . . . . . . . . . . . .g ..g g  .g g  . .g  .g g  ... . ... ... . . .g g  . .g  . . . ...X. ... ... . ... . .g  . . . ... ... .",
"g g  . ... . . ..... . . . . . . . . . .g  . .g  . . . . . . . ... .g .. .g  .g .. . . . . . . . . . . ... .g  . . . .X... . . .",
".. . ... . . . . . . . . . ... . .g  ... . . . . . . . . . . . .g ..X... . . . . . . . .g g  .g g g  .g  . . ... . . . . . . . .",
" . . .X... ... . .X. . . ... . . . . ... . . .g ..g g  . . . . . . ... . . ... . .X... . . .g g  . . . .g g  .g  . .g  . ...X. .",
"g .. . ... . . ... ... . . . . . . . . . .g  . .g g  ..... . . .g g  . . . . . . . . . . .g  . . ..... . . . . .g  . ... . . . .",
" . .g  .g  ... . . . . . . . . .g  . . . . .g  . ... . . . . . .g  . .g g  . . ... . .X... .g  . . . .g  .g  ... . . . .I. .g , ",
", , , g  . . . . . . . . . . . . . . . . ...g g  . . . . . . . . .g  . . . . . . ... ... . . . .g  .g  . . . . . . .g I.g I. .g ",
"g ,  .g g ..X. . ... . . . .X. . ... . . . . . .I. . . . . . . . . . . ...X. . . . . . . . ..... ...g  .g ..X. . ... . .I.g  . .",
" . . .g  . . . . . . . . . . . ...X. . . . ...I.g I... . ... . .g  . . . . . . . . . .I.I. . . . . . . . ... .g  . . . . . .g  .",
"g g  .I. ... . . . . .X. .g  . . .g  . . . . . .I. . . . . . . . . ... . . . . ... .X.I.I. .g  . . ... . . . .g  .g .. . . ...X.",
" .g I.g I... . . . . . . . . .g g  . ... . . . .g g  . . ... . . ...X. ...X. . . .I.I., g I.I. .g  . . ...X. . .g  . . . .g  .X."
};
