/* XPM */
static char *_cf3887397694e14feecbb1b5eb91dd9RycipsUY262wm4jp[] = {
/* columns rows colors chars-per-pixel */
"64 64 152 2 ",
"   c #322A22",
".  c #3B332B",
"X  c #3A3431",
"o  c #3E3939",
"O  c #40382F",
"+  c #433C34",
"@  c #413B3B",
"#  c #5F4D1B",
"$  c #4D4135",
"%  c #46473E",
"&  c #4A4239",
"*  c #534637",
"=  c #51463A",
"-  c #574839",
";  c #5A4A39",
":  c #635239",
">  c #695739",
",  c #6B5A39",
"<  c #487420",
"1  c #1E484F",
"2  c #1F4950",
"3  c #294243",
"4  c #384540",
"5  c #214D55",
"6  c #25545D",
"7  c #275760",
"8  c #275962",
"9  c #295C65",
"0  c #2B5F68",
"q  c #385E65",
"w  c #2A616B",
"e  c #37666E",
"r  c #2C6570",
"t  c #2D6A75",
"y  c #2F6C78",
"u  c #2C707F",
"i  c #584C44",
"p  c #4E4D56",
"a  c #534F55",
"s  c #425957",
"d  c #51525D",
"f  c #5A575F",
"g  c #405F63",
"h  c #595762",
"j  c #595B6A",
"k  c #5F6170",
"l  c #61606B",
"z  c #636676",
"x  c #676A7A",
"c  c #696C7D",
"v  c #607272",
"b  c #359525",
"n  c #58BA32",
"m  c #7CD328",
"M  c #2B7382",
"N  c #297688",
"B  c #27798C",
"V  c #28788A",
"C  c #327988",
"Z  c #477E89",
"A  c #6D6F80",
"S  c #6F7183",
"D  c #717486",
"F  c #747789",
"G  c #777A8A",
"H  c #797C8B",
"J  c #348496",
"K  c #388294",
"L  c #3C8A9C",
"P  c #42808C",
"I  c #5D868E",
"U  c #468390",
"Y  c #528F9D",
"T  c #7B8189",
"R  c #678A91",
"E  c #678D9D",
"W  c #6D919E",
"Q  c #729095",
"!  c #4B96A7",
"~  c #4C97A8",
"^  c #5796A4",
"/  c #59A1B2",
"(  c #60A6B6",
")  c #68A6B4",
"_  c #65ABBB",
"`  c #6BAEBE",
"'  c #73AFBD",
"]  c #78B7C5",
"[  c #79B8C7",
"{  c #76B8C8",
"}  c #7CBCCB",
"|  c #81848D",
" . c #86898F",
".. c #888B8F",
"X. c #8B8E90",
"o. c #8D9191",
"O. c #949793",
"+. c #969995",
"@. c #9A9D99",
"#. c #9FA29E",
"$. c #889DA0",
"%. c #A4A6A3",
"&. c #ADAEAC",
"*. c #A5B1B4",
"=. c #A9B0B1",
"-. c #ADBCBF",
";. c #B2B4B2",
":. c #B1BDBF",
">. c #FFFCA2",
",. c #A1BAD0",
"<. c #9BC5CF",
"1. c #85C4D3",
"2. c #8AC5D5",
"3. c #8FC7D8",
"4. c #91C7D8",
"5. c #94C8D9",
"6. c #9DCADD",
"7. c #A0C6CF",
"8. c #B7C7CB",
"9. c #A8CED7",
"0. c #A4CDDC",
"q. c #A3CBE0",
"w. c #AACEE3",
"e. c #B8CFE2",
"r. c #B2D2E6",
"t. c #B6D1E9",
"y. c #BBD3EA",
"u. c #C3C4C3",
"i. c #CCD5DA",
"p. c #D2D2D2",
"a. c #DBDCDD",
"s. c #C2D4EE",
"d. c #C7D8EF",
"f. c #CDD8E8",
"g. c #D5DAE1",
"h. c #C7D8F0",
"j. c #CBDBF1",
"k. c #D0DEF2",
"l. c #DCE4E9",
"z. c #CEE0F2",
"x. c #D4E4F4",
"c. c #DBE4F3",
"v. c #D7E8F5",
"b. c #DCEEF7",
"n. c #DEEFF8",
"m. c #DFF0F8",
"M. c #E0EEF8",
"N. c #E4F1F7",
"B. c #E4F2F9",
"V. c #EAF5FB",
"C. c #F7F7F7",
"Z. c #F3F7F8",
/* pixels */
"b n b >.< b b b b b b n b b < b < < b b b < b b < b n b b b b n b b b < b b b b b >.>.< # >.>.b b b b b b b b b n m b b b b b b ",
"n b b b < b b n b < b b b n b b < b n b < b < b b n n b b b b n b b b b b m n b b b b >.>.b b < n m b b b b b b b b b b n b b b ",
"n b < b b < b b b b b < b b b b b b b b b b b b b b b b b n n b < b < b < m b b < b b >.>.b b b b b b b n b b m < b b b b b b b ",
"b < b < < b b b b < < b < b < b n >.>.b n b b n b b b b b b n b b < < b n < b < < b < n b b < n b b b n < b b n b b n b b < b b ",
"n b b < < b b n b b < < < b b b b >.>.b b b n b b b b b b n b b b n < b < b b < b b b b b b < < < b b b < b < b b n n b b < b b ",
"< b b < b b n m b b < < b n b >.>.# < >.>.b b b b n n n -.K K K K K b b < b b b < n n n b b b < b b b b b b b b n m b b b b < b ",
"b < < b b b b b b < < < < b b >.>.< # >.>.b b n a.f.s.b.b.C.V.V.V.Z.b.z.s.a.n n < b m b b b b b b b n m b b b b b b b b n n b b ",
"< b b b n b b < < b < b b b b n b >.>.b b b b g.j.b.N.C.V.Z.C.V.V.V.V.C.N.b.s.a.b b b n b b < b b b b b b b b b b b b < < b b b ",
"b n b b b b b b b b b b b n b m n >.>.b i.z.z.c.B.Z.C.C.V.Z.C.V.V.V.V.C.C.Z.M.c.x.l.b < < < n b n b n m n b n < b b < b b < < b ",
"b b b b b b b b n b n m b b n b b < b 8.v.b.C.C.V.C.C.C.Z.V.V.V.V.V.Z.C.C.C.V.C.Z.n.x.b n < < b b b n b b b b < n b b < b b < b ",
"b b < b b b m b b b b b b b b b < < < 0.k.b.C.Z.V.Z.C.C.C.Z.V.Z.V.Z.C.C.C.V.V.C.Z.b.k.<.< b b m b b b n b < < < b b < b b b b b ",
"< b b b b b b b b n b n b n m b b b 5.k.b.V.V.V.Z.V.V.C.C.C.C.C.C.C.C.V.V.V.C.V.V.m.b.k.7.b b n n b b b b b b b b b b n b b b < ",
"b b n b b b m n b b b b b m b b b *.b.b.n.V.C.C.V.V.V.C.C.C.C.C.C.C.C.V.V.V.V.C.Z.V.b.v.r.*.b b b b b >.n m b n b b b b b b b b ",
"b < b n b b b b < b < b n n b :.W k.B.B.B.V.C.C.Z.V.V.V.C.C.Z.V.C.C.Z.V.V.V.C.C.C.V.b.b.v.s.E a.m b >.< >.m n b b b n b n m n b ",
"b b < b < < < < b b b n b b a.9.h.h.B.B.m.V.V.C.C.Z.V.V.V.V.V.V.V.V.V.V.V.C.C.C.V.V.b.b.v.s.s.Q b b b >.b b b b b b b b b b b b ",
"b < b < < b b b b b m b b b *.e.t.1.b.b.b.n.V.V.V.Z.V.V.V.V.V.V.V.V.V.V.V.C.V.V.V.b.b.b.v.q.t.,.n b b n b b b b b b b n n b b b ",
"b < b b < b b n n b n b b i.1.s.5.s.k.k.b.b.b.V.V.C.C.C.V.C.C.C.C.Z.V.C.C.C.V.V.b.b.b.k.h.s.t.s.1.b n b b b b n m b b b b b < < ",
"< b b b b b b b b b b b b Z 1.` k.k.k.x.b.V.b.V.V.Z.Z.V.V.C.C.C.C.Z.V.Z.Z.Z.V.B.b.b.b.j.s.s.s.J 1.R b b n b b b b b b b b b b b ",
"b b n b b b n n b b b b 9 ` 1.y.k.k.k.x.B.V.b.n.V.V.B.b.V.V.C.C.C.V.V.B.V.V.V.b.b.b.b.j.s.s.s.6.1.~ $.b b b b b b n n m b b n b ",
"b b b b b b n b b b b b B J / y.k.k.k.x.b.b.b.b.b.b.b.b.V.V.V.V.V.V.V.b.b.b.b.b.b.b.b.h.s.s.s.q./ B t b n b b b b b b b b b n n ",
"b b b n b n b b b b b b y 1.1.3.j.k.s.s.v.b.b.b.b.b.b.b.B.V.V.V.V.V.n.b.b.b.b.b.b.b.x.s.s.s.s.1.1.( w b b b b b n n b b b b b b ",
"b n >.>.b b b n b b b M V 1.1.1.2.s.s.k.k.k.k.n.V.B.b.b.b.b.b.b.b.b.b.b.b.b.b.b.h.s.s.j.k.d.1.1.1.1.9 e b n b n b n b n n n b b ",
"n n >.>.b m n b b b b V B } 1.1.s.s.k.k.k.k.k.b.b.b.b.b.B.B.b.b.b.b.b.b.b.b.b.x.d.s.s.s.k.k.s.1.1.^ 9 9 b b b b b b b b n b b b ",
">.>.# < >.>.b b b n n y B B 1.1.y.s.k.k.k.j.s.k.x.v.k.b.B.V.b.b.b.b.b.x.x.v.j.h.s.k.s.s.s.s.t.1.' 9 w y b b n b n b b b b b b b ",
">.>.< # >.>.n b b b y B B V ` 1.1.s.s.k.k.s.k.k.k.k.k.k.b.b.b.x.b.b.j.s.s.s.s.s.h.k.k.s.s.r.1.1.! 9 9 9 9 n m b b b b b n m b b ",
"m n >.>.b b b b b b M B B N J 1.1.1.4.s.d.s.k.k.k.k.k.k.k.x.x.h.d.d.s.s.s.k.j.s.s.k.k.s.1.1.1.1.N y w 9 w n b n n b b m m n n b ",
"n b >.>.n b b < b < y y y y M _ 1.1.s.s.s.s.k.k.k.k.s.k.k.k.k.s.s.j.j.s.s.k.k.h.s.s.s.s.w.1.1.J y y y 0 9 b b b n b b b b b b b ",
"b b b n b b < b < # y y B B B M N B 4.s.s.s.s.k.k.h.j.k.k.k.k.k.s.k.k.k.s.k.k.h.s.s.s.s.1.B y 9 9 9 9 9 0 m n b b b n b b n n n ",
"b b b b b b b < b < 9 y B B M y y B 1.1.1.1.s.s.s.s.h.k.k.k.k.j.s.k.k.k.s.s.s.s.6.1.1.1.1.M y y 0 9 9 9 n n b b b b b n b b n b ",
"b n b b b n n b b b w N B N y y y M 1.1.1.1.w.s.s.s.s.h.k.k.k.s.s.s.h.s.s.s.s.s.5.1.1.1.( y y y y 9 9 9 b b b b n b b b b b b n ",
"b n b b b b b b b < I u B y y y M y C 1.1.1.1.6.s.s.q.s.h.h.s.s.s.s.s.w.y.s.y.5.1.1.1.} y t y y y 9 9 9 n b n b n b b b n b b n ",
"b b b b b b < b < b b t y y y V B B y y L { 1.1.1.1.1.5.s.s.s.5.s.s.s.2.1.1.1.1.1.! P w 9 9 t y t 9 9 b n b b b b b n b b n b b ",
"b n b b b < < # # < b < y y B B B y y y y y 1.1.1.1.1.1.1.1.1.1.1.1.1.1.1.1.1.1.Y y 9 9 9 9 9 9 9 9 b n b b b n b n n b b m n b ",
"b b b b < b b b b b < < < 1 V B y y y y y y y ] ] ] N 1.1.1.} ] 1.1.1.1.N ] ] ^ y y 9 9 9 9 9 9 8 b < b n b b b b b b < b b b b ",
"b n b b b < b b b b b b b n w B y y y M y y y y y y y ) 1.[ U y ) 1.1.) y y y y y y w 9 9 9 9 9 g b b b n n b b b b b b b b b b ",
"< b b b b b n b b b b b b b 6 y y y y B M y y y y y y y y y y y y y y y y y y y y y y 9 9 9 9 9 b b b b b b b b b b b b b < n b ",
"b < b b b b n n b m n n b b b n q 5 y B B M y y y y y y y y y y y t y y y y 9 r y w 9 9 6 2 n b < b b b b b b n b n b b < b b m ",
"n b < < < b b b b n m b n b n n m n 5 B B B B N y y y y y y y y y t 9 y y y 9 9 9 9 9 7 >.< >.b b b < b b b b b b n b b < b b b ",
"b b < b n n n m n b b b b b b b b m =.7 t V y y y y y y y y y y y 9 9 9 t 9 9 9 9 9 8 b b >.b m b b m n b b < b b b b b b b b b ",
"b b < b m n < < n n < < < < b b n b m O.v 9 w w w 3 3 w y y y y 9 9 8 6 3 6 6 6 6 T O.@.b b b b b b b < b b b b n b b n n b b n ",
"n m b b < n b n b b b >.>.< b b b O.O. .F F F h & & & ; 4 4 s s $ 4 % & & = l F F F F ..O.%.b b b b b b < b < < b < b b b b b b ",
"b m b b b b n m b b < >.>.b # # O.O.T F F f a ; ; ; & & ; ; ; ; ; ; = & - ; ; i F F F F  .O.O.< < b b b b b b b n b b b b b b b ",
"b b b b b n b n < >.>.# < >.u.O.O.H F F = ; ; ; ; ; & & ; ; ; ; ; ; * & ; ; ; ; ; i F F F X.O.O.b b n n b b n m b n b b n n b b ",
"b n b b b b b b b >.>.< # >.O.O.H F F c X & & & & & & @ : ; ; ; ; ; - & & & & & & @ j F F F o.O.O.>.>.b b b < n < b b b b b b b ",
"b m n b b b b b n b b >.>.O.O.O.F F F F j @ X X X X   X : : ; ; : , *   X X X X X j F F F F F O.O.O.>.b b b b b n m b b b b b b ",
"b n < < b < n b b < b >.O.O.O.X.F F F F F F F F z z j   & , , , , ; O j z z x F F F F F F F F O.O.O.< >.>.b b b b < < b b b n b ",
"< b b b b n m b b b n b O.O.O.| F F F F F F F F F F k j & : , , , & @ j F F F F F F F F F F F O.O.O.# >.>.n b b b b b b n < < b ",
"b b b b b b b n b b b b O.O.O.O.F F F F F F F F F F F j . = > , ; + h c F F F F F F F F F F F O.O.O.>.b b b b b b b b b b b b b ",
"b n b b b b b b b b n b O.O.O.O.H F F F F F F F F F F F d & > , & X z F F F F F F F F F F F o.O.O.O.>.b < < b b b n m < n b b b ",
"m m b b m b b b b n b n #.O.O.O.O.F F F F F F F F F F F d . ; : & o F F F F F F F F F F F G O.O.O.O.b b b < b b b b b < b b < n ",
"n n b b n b b b b b b b b O.O.O.O.O.F F F F F F F F F F S @ & & + k F F F F F F F F F F G O.O.O.O.#.b b b b b < b b < b < b < < ",
"b < < n m b b b n b b b b b O.O.O.O.O.F F F F F F F F F F j + & j F F F F F F F F F F G O.O.O.O.@.b b < b b b b b < b b b b < < ",
"b b b n b b n b b n b n n m u.O.O.O.O.O.X.F F F F F F F F D d p A F F F F F F F F F X.O.O.O.O.O.n b b < b n n b b b n b b b < < ",
"b b b b b b b b b b b b < n < < O.O.O.O.O.O.O.F F F F F F F F F F F F F F F F | O.O.O.O.O.O.O.n b n b b n b b < b b b b n b n b ",
"< < b b n b b b n n b b b b b b b @.O.O.O.O.O.O.O.| G G G G F F F G G G G O.O.O.O.O.O.O.+.b b b b b b b n b < b b b b m n b b b ",
"n b b n b b b b b b b b b b n b b < b %.O.O.O.O.O.O.O.O.O.O.O.O.O.O.O.O.O.O.O.O.O.O.b b < < b < < < b < b b b n b b b b b b b b ",
"b b b m n b n b b m b b b n b b b b b n p.;.&.O.O.O.O.O.O.O.O.O.O.O.O.O.O.O.O.O.&.m n b b b < < b b b b < < b < b b < b b n m b ",
"< n b b n b b b n b n b b b b b b b b b b < b b < < b n n ;.O.O.O.< b b b b b b b b b b b < b b b n n b b b b b < b b n b b b b ",
"b b < b < b n b b b b b b b b b < b b b b b < b b n b b b b b b < b b < < b b b n b b m n b < b b b b < b < b n b b b b >.b < # ",
"# # # < b b b b b b b b b b b b b b b b b n < < b b b b b b b b b < b b b b b b b n b n b b b b < b < b b b b b b b < >.< >.b < ",
"< # b < < n m b b n b b b b m b b n b b b b b b >.b b b b b b b b b b b n m b b b b b b b b n n b n < b < n m b b n b b >.< b b ",
"b b b < b b b b b b b b b b b b n m b b b b n >.< >.n b b n b b < b b b b b b b b b b >.>.b b b b b b b b n b < b b b b b b < b ",
"< < b >.b n b b b b b m b < b b b < b b b b b b >.b b b b b b b b b n b b b b b n b m >.>.b < b b b n b b b b < b < n b b b n m ",
"b < >.< >.n b b b b b b b b b < < b b n b b b b < < b b b n b b b n m b n m b b b >.>.# < >.>.b < b b b n m b b < b b b b < b m "
};
